<?xml version="1.0" encoding="UTF-8" standalone="no"?>
<svg id="svg4136" xmlns:rdf="http://www.w3.org/1999/02/22-rdf-syntax-ns#" xmlns="http://www.w3.org/2000/svg" height="2824" viewBox="0 0 5094 2824" width="5094" version="1.1" xmlns:cc="http://creativecommons.org/ns#" xmlns:dc="http://purl.org/dc/elements/1.1/">
<path id="path4146" d="m1525.8 2781.3c-17.344-22.966-39.536-52.331-49.315-65.256-9.7788-12.925-26.795-35.425-37.813-50s-26.163-34.6-33.655-44.5c-27.449-36.273-61.243-80.997-103.34-136.76l-14.163-18.762-0.685 12.164c-0.3768 6.6901-1.4037 31.333-2.282 54.762-0.8784 23.429-2.019 52.273-2.5348 64.098s-0.9514 23.796-0.968 26.602l-0.03 5.1025-14.75 1.1578c-8.1125 0.6367-23.75 1.604-34.75 2.1495-11 0.5454-27.2 1.4529-36 2.0165-72.526 4.6455-151.71 9.0945-152.25 8.5541-0.3246-0.3246 0.3993-11.051 1.6087-23.836 1.2093-12.785 5.1131-54.971 8.675-93.746 3.562-38.775 7.1409-77.475 7.9533-86 6.2189-65.259 6.0466-62.412 4.2194-69.732-2.0313-8.1383-12.968-50.255-26.168-100.77-8.0668-30.871-22.004-84.24-30.762-117.79-2.4455-9.3692-3.6457-8.085 11.901-12.734 45.003-13.459 69.605-20.926 69.892-21.214 0.1822-0.1821 1.4892-12.241 2.9046-26.797 2.7566-28.349 10.332-107.5 10.764-112.47 0.3267-3.7541-1.4992-3.8678-30.739-1.9142-11 0.7349-28.55 1.7922-39 2.3495s-22.262 1.2883-26.25 1.6243l-7.25 0.611-0.052-6.8353c-0.028-3.7594-0.467-35.41-0.97487-70.335-2.461-169.25-2.4838-180-0.38268-180 3.8612 0 44.416-4.0398 60.909-6.0651 24.863-3.0532 56.7-9.8665 59.679-12.772 0.3734-0.3642 2.5429-13.712 4.8209-29.662s4.4721-29.34 4.8756-29.755c0.4036-0.4151 47.284-0.6401 104.18-0.5l103.45 0.2547 0.2683 22.582 0.2684 22.581 13.331 1.1803c139.47 12.348 233.81 137.4 239.27 317.16 3.6881 121.49-44.48 241.22-110.88 275.63-1.5125 0.7837-2.75 1.5794-2.75 1.7684 0 0.3184 21.726 34.133 144.31 224.61 25.309 39.325 58.137 90.349 72.95 113.39l26.934 41.887-3.848 3.721c-2.1163 2.0466-16.223 15.57-31.348 30.052s-33.35 32.014-40.5 38.959c-7.15 6.9456-24.922 24.073-39.494 38.061s-31.488 30.273-37.591 36.189l-11.097 10.756-31.536-41.756zm57.785-29.832c8.4878-7.4665 15.432-13.774 15.432-14.018 0-0.4244-4.802-9.6851-20.655-39.834-4.0279-7.6601-7.171-14.08-6.9847-14.266 0.2775-0.2776 18.218 18.939 36.824 39.443 5.1066 5.6275 5.015 5.6574 15.36-5 14.47-14.906 13.928-11.981 4.331-23.408-4.5466-5.4133-10.699-12.767-13.672-16.342s-7.6594-9.1133-10.414-12.307c-2.7548-3.194-4.8469-5.9491-4.6493-6.1224 0.3375-0.296 25.134 10.535 36.546 15.963 2.8528 1.3569 5.5528 2.4699 6 2.4733 0.4471 0 2.0275 0.6398 3.512 1.4143 2.6319 1.373 3.0359 1.1549 16.205-8.7499l13.506-10.158-1.8164-3.0062c-1.9367-3.2055-30.052-47.325-40.789-64.006-6.6977-10.406-38.006-59.505-49.305-77.321-3.575-5.6371-9.0299-14.171-12.122-18.964-3.0921-4.7931-13.485-21.09-23.095-36.215-9.6103-15.125-24.376-38.3-32.812-51.5-8.4365-13.2-18.767-29.4-22.957-36-38.536-60.7-38.459-60.586-40.513-60.065-1.1 0.2786-7.2109 2.2889-13.58 4.4674-12.644 4.325-34.083 9.6394-43.17 10.701-3.1625 0.3696-5.75 1.0459-5.75 1.5029s-0.6278 0.59-1.3952 0.2955c-0.7673-0.2944-3.1298-0.081-5.25 0.4753-2.1201 0.5558-11.28 1.5154-20.355 2.1323s-17.335 1.5754-18.355 2.13c-1.3424 0.7298-1.6605 0.694-1.1516-0.1294 0.4941-0.7995-0.292-0.9776-2.6454-0.5992-4.9778 0.8003-39.11 2.8346-40.848 2.4345-1.3106-0.3017-1.533 4.6773-1.7615 39.442l-0.2615 39.787 8.2044 10.713c4.5124 5.892 12.741 16.563 18.286 23.713 5.5448 7.15 15.246 19.684 21.557 27.852 6.3116 8.1687 15.546 20.094 20.52 26.5 4.9746 6.4064 12.175 15.731 16 20.721 3.8255 4.99 12.805 16.636 19.955 25.88 7.15 9.2441 16.682 21.586 21.182 27.427 4.5 5.8409 14.29 18.495 21.755 28.12 7.4654 9.625 17.508 22.605 22.318 28.844 4.8096 6.239 12.345 15.991 16.745 21.671 4.4 5.6801 11.933 15.426 16.741 21.656 4.8075 6.231 15.608 20.185 24 31.009 8.3926 10.824 21.334 27.58 28.759 37.237 16.086 20.92 11.958 20.378 30.568 4.0081zm-497.1-138.5c5.5-0.5796 14.442-1.4819 19.87-2.0049 5.4287-0.5231 10.124-1.2046 10.434-1.5145 0.3099-0.3099 2.699-18.668 5.3091-40.796 4.1111-34.853 6.9948-58.69 9.7949-80.964 1.2418-9.8785 1.7907-7.4018 2.5384 11.453 0.3987 10.053 0.8758 19.628 1.0603 21.278 0.1846 1.65 1.082 19.875 1.9943 40.5s1.8337 38.062 2.0475 38.75c0.3324 1.0688 35.333 2.0551 35.488 1 0.02-0.1375 1.8112-10.6 3.98-23.25 2.1689-12.65 6.0601-36.38 8.6472-52.733s4.794-29.628 4.9043-29.5 0.5054 8.1078 0.878 17.733c0.3725 9.625 1.0936 27.175 1.6024 39s0.931 24.072 0.9382 27.215c0.015 6.6185 0.9742 7.5195 9.0166 8.472 2.7204 0.3222 4.7637 0.8811 4.5407 1.2419-0.2231 0.3609 0.3508 0.7276 1.2752 0.815 0.9244 0.087 9.6953 1.9808 19.491 4.2076 20.85 4.7396 21.492 4.7919 22.134 1.7987 0.2654-1.2375 2.3147-37.35 4.554-80.25 5.2744-101.04 7.7694-146.44 8.4916-154.5 0.5865-6.5469 1.6071-25.092 7.9799-145 1.9146-36.025 3.7205-69.1 4.013-73.5s1.204-21.05 2.0256-37 1.9383-35.3 2.4816-43c0.5434-7.7 1.6603-26.6 2.4822-42 0.8218-15.4 1.7348-31.6 2.0289-36s2.0956-37.925 4.0032-74.5c1.9077-36.575 3.7152-70.1 4.0168-74.5 0.3015-4.4 1.4445-23.975 2.5399-43.5 1.0955-19.525 2.8673-50.8 3.9374-69.5 1.0702-18.7 1.9583-35.012 1.9736-36.25 0.024-1.9504-32.511-3.9198-33.041-2-0.9522 3.4487-18.931 128.49-18.931 131.66 0 1.3333-0.244 2.1802-0.5422 1.882-0.2983-0.2982-0.5141-29.629-0.4797-65.179l0.062-64.637-2.2703-0.9345c-1.2487-0.514-8.1203-1.8867-15.27-3.0504-7.15-1.1637-14.454-2.3702-16.232-2.6812-4.1831-0.7318-3.1262-5.8523-11.289 54.69-8.5885 63.699-10.754 79.29-11.738 84.5-0.5524 2.9262-2.0418-9.288-5.5482-45.5-6.6255-68.426-9.7586-97.36-10.645-98.303-0.7561-0.8051-25.048-2.3255-25.048-1.5677 0 0.8253-4.0496 46.372-5.4758 61.587-0.8138 8.6811-3.7365 43.459-6.495 77.284s-5.8777 71.4-6.9317 83.5c-1.0539 12.1-4.0025 46.75-6.5525 77-10.243 121.52-12.643 149.92-16.475 195-2.1974 25.85-6.0783 71.75-8.6241 102s-5.4865 64.9-6.5349 77-3.6955 43.825-5.8826 70.5c-7.2236 88.106-8.0142 97.469-8.5282 101-0.2802 1.925-1.3974 14.3-2.4827 27.5-1.0852 13.2-2.6581 32.083-3.4952 41.961-2.019 23.825-2.001 25.815 0.2279 25.157 0.9625-0.2839 6.25-0.9904 11.75-1.57zm113.82-416.18c-3.2942-4.6037-6.3274-8.952-6.7404-9.663-0.4649-0.8006 0.6646-3.0201 2.9665-5.8292l3.7172-4.5364 5.9748 9.1147c6.4791 9.884 6.5773 10.767 1.882 16.914l-1.8105 2.3703-5.9896-8.3703zm16.866-330.51c-4.616-5.137-4.6254-5.1028 2.4527-8.974 3.0614-1.6745 3.215-1.6571 6.1946 0.7007 2.9942 2.3693 4.1272 4.9178 2.1864 4.9178-0.5388 0-1.8979 1.8-3.0203 4-2.5567 5.0115-2.745 4.996-7.8134-0.6445zm-141.23 442.69c1.1606-0.7342 1.709-6.1888 2.6879-26.735 0.6765-14.197 1.9322-37.737 2.7906-52.312s2.0183-35.5 2.5776-46.5c0.5592-11 1.2987-25.113 1.6431-31.362l0.6263-11.362-2.3918 0.6753c-1.3155 0.3713-3.2918 1.0624-4.3918 1.5356s-5.375 1.6274-9.5 2.5649-7.9275 2.097-8.45 2.5768c-0.5225 0.4797-1.7189 0.8722-2.6587 0.8722-1.6183 0-26.056 6.8377-26.691 7.4681-0.1646 0.1635 3.3583 14.638 7.8288 32.165 19.386 76.004 23.908 93.65 27.336 106.67 1.999 7.592 3.6345 14.004 3.6345 14.25 0 0.7953 3.4585 0.4419 4.9581-0.5066zm316.5-13.4c93.183-25.595 158.84-130.65 166.59-266.58 7.6544-134.18-47.789-243.88-144.59-286.09-18.662-8.1373-43.442-12.897-67.189-12.906l-15.189-0.01-0.5525 4.25c-0.304 2.3375-1.4523 33.05-2.5518 68.25s-2.219 69.4-2.4877 76-0.6105 16.05-0.7595 21l-0.271 9 10 0.6646c109.5 7.2772 149.82 131.09 61.901 190.08-8.3681 5.615-32.727 19.758-34.03 19.758-0.2095 0-2.7412 1.1503-5.626 2.5562-6.3199 3.0801-27.55 12.178-37.245 15.962-3.85 1.5025-7.4293 3.1273-7.9539 3.6106-1.1546 1.0637-4.6282 34.076-3.6912 35.079 1.5935 1.7066 49.795-4.4133 65.145-8.2711 4.675-1.175 9.6154-2.3439 10.979-2.5976 1.3633-0.2538 2.7133-0.811 3-1.2382 0.2867-0.4273 2.7713-1.3321 5.5213-2.0106 13.004-3.2086 28.409-11.871 37.83-21.273 6.9011-6.8867 6.6726-6.8158 6.6602-2.0679-0.039 15.002-20.106 32.126-53.654 45.786-4.8599 1.9789-10.186 4.1953-11.836 4.9253s-4.575 1.6473-6.5 2.0383-4.85 1.2993-6.5 2.0183c-3.094 1.3484-17.137 5.3218-35.5 10.044-14.675 3.7742-13.598 2.6779-14.385 14.644-0.3723 5.6611-0.9492 12.455-1.282 15.098l-0.6051 4.8051 10.386-0.667c9.4307-0.6056 23.35-2.1592 39.386-4.396 3.3-0.4603 8.925-1.1675 12.5-1.5715s7.4689-1.0986 8.6532-1.5436c1.1842-0.445 5.0092-1.3062 8.5-1.9138 14.206-2.4726 37.148-10.229 50.365-17.028 8.2781-4.2581 8.7851-4.0825 4.6461 1.6092-14.544 19.999-60.574 37.376-117.63 44.405-4.9298 0.6073-9.6287 1.6422-10.442 2.2996-1.1835 0.9568-1.3155 0.9246-0.6614-0.1617 0.6062-1.0069 0.3332-1.2094-1.0581-0.7846-1.0313 0.3148-3.7877 0.676-6.1252 0.8026s-4.25 0.5921-4.25 1.0346-1.125 0.8045-2.5 0.8045c-2.8578 0-3.1798 4.5786-1.8503 26.308l0.6497 10.619 8.6003 0.3752c32.466 1.4164 75.509 0.046 85.6-2.7264zm-64.232-204.05c99.927-13.301 107.54-137.9 8.6956-142.27l-11.536-0.5111-4.2347 35.878c-5.704 48.327-11.955 100.03-12.649 104.63l-0.5665 3.75 4.7618-0.019c2.619-0.011 9.6074-0.6645 15.53-1.4528zm-277.3-139c4.125-0.3129 10.312-0.6255 13.75-0.6946 3.4375-0.069 6.25-0.4622 6.25-0.8734 0-0.4111 8.3099-1.0755 18.466-1.4763 22.254-0.8784 20.115 1.426 20.901-22.515 0.9551-29.104 3.5104-89.108 4.6417-109 0.5474-9.625 1.2922-33.362 1.6552-52.75l0.6599-35.25h-2.2319c-1.9646 0-29.919 3.1773-77.592 8.8191l-15 1.7751-0.6415 5.9529c-0.3528 3.2741-0.6903 21.034-0.75 39.466l-0.1085 33.513 14.75 5.3951c8.1125 2.9674 17.45 6.252 20.75 7.2993s7.125 2.493 8.5 3.2127 4.1875 1.8515 6.25 2.5151c5.4915 1.7668 4.9777 2.15-9.0008 6.7142-7.012 2.2895-19.154 6.3395-26.983 9l-14.234 4.8372-0.016 12.625c-0.01 6.9438 0.2648 14.031 0.6086 15.75l0.625 3.125h25.075c19.974 0 24.822 0.2527 23.833 1.242-0.6831 0.6831-11.911 7.3712-24.95 14.862l-23.708 13.62-0.275 16.813c-0.3379 20.66-4.1799 18.52 28.775 16.021zm3639.5 764.61c-13.791-10.818-25.874-20.189-86.605-67.167-11.732-9.075-34.845-26.97-51.363-39.766s-34.195-26.483-39.282-30.414c-11.175-8.6356-13.43 1.9482 14.357-67.401 12.984-32.405 26.19-65.443 29.346-73.418 3.1564-7.975 16.608-41.614 29.893-74.754 28.64-71.445 27.518-57.226 6.8565-86.902-25.564-36.717-30.613-43.989-137.7-198.34-13.927-20.075-27.991-40.325-31.252-45-27.8-39.851-44.753-64.534-44.753-65.161 0-0.4114 5.5125-9.0864 12.25-19.278 18.966-28.689 38.917-58.995 71.466-108.56 69.644-106.06 85.513-130 86.131-129.95 0.3594 0.025 3.8239 4.6375 7.6989 10.25s27.246 38.78 51.935 73.705c77.651 109.84 126.71 179.24 131.95 186.68 3.103 4.3968 5.325 6.7163 5.7341 5.9855 0.3673-0.6562 3.4499-7.9366 6.8503-16.179 3.4003-8.2421 8.8084-21.286 12.018-28.986s18.287-44.15 33.505-81 31.394-76 35.946-87c7.0541-17.046 21.519-52.128 26.125-63.359 1.7746-4.3277-1.8165-6.3025 42.027 23.111 20.824 13.97 72.061 48.27 113.86 76.222 41.8 27.952 76.151 50.944 76.336 51.094 0.1851 0.1495-1.4485 4.2453-3.6302 9.1019-8.8825 19.773-41.866 93.707-47.213 105.83-5.248 11.898-14.406 32.451-63.494 142.5-9.2 20.625-23.149 51.9-30.998 69.5-7.8487 17.6-21.696 48.65-30.771 69-9.0756 20.35-29.328 65.8-45.006 101-26.686 59.915-35.532 79.753-72.464 162.5-7.9782 17.875-18.086 40.6-22.462 50.5-4.3757 9.9-8.5823 19.35-9.348 21-1.8356 3.9553-16.907 37.733-41.163 92.25-10.828 24.338-20.16 44.235-20.737 44.217-0.5774-0.018-7.7999-5.328-16.05-11.8zm10.629-52.917c2.241-4.8125 6.0037-13.025 8.3615-18.25 2.3579-5.225 5.8663-12.875 7.7964-17 5.1393-10.984 31.732-68.78 40.72-88.5 4.2615-9.35 11.912-26 17-37 5.0886-11 12.967-28.1 17.507-38 12.053-26.283 24.007-52.288 34.475-75 5.0701-11 12.722-27.65 17.004-37 15.139-33.055 24.88-54.24 34.484-75 5.3436-11.55 12.348-26.85 15.566-34 3.2175-7.15 7.6739-16.727 9.903-21.282 2.2292-4.555 4.053-8.4938 4.053-8.753s4.725-10.625 10.5-23.036c5.775-12.41 10.5-22.703 10.5-22.872 0-0.1693 2.5318-5.6514 5.6262-12.182 3.0944-6.5311 7.32-15.7 9.3902-20.375s5.8913-13 8.4911-18.5c2.5999-5.5 6.657-14.275 9.0158-19.5 2.3587-5.225 8.6523-18.95 13.986-30.5 9.5116-20.598 17.778-38.557 34.752-75.5 4.675-10.175 12.432-27.05 17.238-37.5 4.8058-10.45 12.02-26.2 16.032-35 4.0117-8.8 9.8085-21.4 12.882-27.999 3.0734-6.5993 5.5879-12.503 5.5879-13.119 0-0.9656-31.107-15.882-33.121-15.882-0.4035 0-5.0788 6.975-10.39 15.5-5.3109 8.525-12.037 19.325-14.947 24s-15.774 25.6-28.586 46.5c-26.943 43.952-29.844 48.253-24.838 36.833 1.165-2.6581 5.6367-14.283 9.9372-25.833s12.143-32.475 17.427-46.5c5.2846-14.025 12.905-34.364 16.933-45.197l7.3251-19.697-2.1207-1.887c-2.5047-2.2288-21.258-15.219-21.971-15.219-0.2701 0-4.2034 5.2875-8.7406 11.75-4.5373 6.4625-11.252 16.025-14.921 21.25-3.6692 5.225-8.3945 11.975-10.5 15-2.1061 3.025-9.5286 13.6-16.495 23.5-21.963 31.214-23.741 33.755-31.452 44.935-4.1476 6.0144-7.541 10.435-7.541 9.8239 0-1.0974 5.6248-17.422 22.486-65.259 4.7495-13.475 11.954-33.95 16.01-45.5 4.0558-11.55 9.4286-26.759 11.94-33.798 5.7872-16.223 5.8456-15.543-1.6848-19.648-3.4375-1.8738-6.475-3.6853-6.75-4.0255s-2.075-1.5419-4-2.6704-12.122-7.2946-22.66-13.702c-23.463-14.267-21.614-13.557-23.277-8.9328-0.7469 2.077-5.8263 14.351-11.288 27.276-25.829 61.128-39.47 93.454-52.747 125-12.006 28.526-23.176 54.973-28.508 67.5-4.4306 10.409-8.4095 19.886-27.357 65.155-4.4095 10.535-9.2224 21.785-10.695 25-1.4729 3.2147-4.0173 9.2199-5.6541 13.345-1.6368 4.125-6.0447 14.7-9.7953 23.5-6.6813 15.676-18.488 43.622-34.011 80.5-11.166 26.528-22.362 53.087-33.514 79.5-5.3407 12.65-13.22 31.325-17.51 41.5-16.034 38.034-26.88 63.727-29.97 71-1.7529 4.125-7.1653 16.95-12.028 28.5-4.8623 11.55-12.738 30.225-17.502 41.5-12.241 28.971-22.92 54.35-32.493 77.224l-8.2553 19.724 8.019 8.7764c10.396 11.378 12.068 12.854 13.238 11.684 0.5198-0.5198 3.7268-5.8867 7.1266-11.926 3.3999-6.0398 9.8755-17.506 14.39-25.481 4.5146-7.975 12.267-21.7 17.227-30.5 8.4949-15.071 22.288-39.412 42.049-74.206 4.7499-8.3633 8.7615-15.081 8.9146-14.928 0.1531 0.1531-2.4459 7.2208-5.7755 15.706-9.7934 24.958-21.482 54.899-30.422 77.928-9.5579 24.622-16.472 42.324-25.932 66.395-7.7061 19.607-7.767 16.914 0.5427 23.981 8.0602 6.8546 6.6653 7.0287 13.026-1.6263 2.9306-3.9875 11.664-15.8 19.408-26.25 16.662-22.484 31.049-41.94 41.944-56.72 10.005-13.573 10.004-13.586 0.928 7.8112-17.187 40.52-21.35 50.285-24.686 57.909-8.1134 18.539-20.781 48.779-20.518 48.978 0.1569 0.1181 10.41 6.8834 22.785 15.034 12.375 8.1505 27.675 18.323 34 22.606 6.325 4.2826 11.625 7.8082 11.778 7.8347 0.1526 0.027 2.111-3.8893 4.3519-8.7018zm56.4-420c-2.75-3.6286-5.136-6.9411-5.3023-7.3612-0.3302-0.8344 9.8322-13.95 10.809-13.95 0.3307 0 2.9778 3.126 5.8825 6.9467l5.2811 6.9467-5.6277 7.0533c-3.0952 3.8793-5.721 7.0328-5.8351 7.0077-0.1141-0.025-2.4574-3.0145-5.2074-6.6431zm-119.8-7.8c4.1205-9.35 10.115-22.85 13.322-30 3.2067-7.15 7.8337-17.5 10.282-23s8.6041-19.225 13.68-30.5c5.0753-11.275 12.958-28.825 17.516-39 4.5587-10.175 12.193-27.05 16.965-37.5 21.978-48.125 22.108-48.455 20.424-51.389-1.3267-2.3116-7.7148-11.054-30.405-41.611-2.8589-3.85-10.29-13.975-16.514-22.5-13.064-17.895-21.231-29.016-36.073-49.123-9.8968-13.407-33.843-45.946-72.399-98.377-8.8978-12.1-16.806-23.012-17.573-24.25-2.0611-3.3233-1.7846-3.5958-14.9 14.689l-12.15 16.939 36.541 72.754c20.097 40.015 36.405 72.891 36.238 73.057-0.3064 0.3064-3.8094-3.8827-60.524-72.378-37.227-44.96-30.518-41.108-42.734-24.534l-10.115 13.722 1.5053 3c0.8279 1.65 3.6401 6.375 6.2493 10.5 4.2941 6.7885 19.53 31.592 63.269 103 8.2537 13.475 15.223 24.95 15.488 25.5 0.745 1.5485-5.6674-5.0283-45.825-47-44.312-46.314-62.9-65.5-63.459-65.5-0.2256 0-2.2821 3.2625-4.57 7.25-2.288 3.9875-8.7963 15.125-14.463 24.75-5.6668 9.625-10.845 18.7-11.507 20.167-1.149 2.546 0.6754 5.5128 40.279 65.5 22.815 34.558 48.897 74.083 57.959 87.833 9.0623 13.75 26.136 39.625 37.942 57.5s29.092 44.073 38.413 58.218l16.948 25.718 1.3484-3.2182c0.7417-1.7701 4.7197-10.868 8.8401-20.218zm-757.2 474c-6.6905-3.223-36.854-17.211-63.519-29.457-6.8856-3.1621-16.949-7.8334-22.364-10.38-5.4144-2.5472-9.972-4.6312-10.128-4.6312-0.1561 0-5.6175-2.5189-12.136-5.5975-6.519-3.0787-19.953-9.3342-29.853-13.901-9.9-4.567-23.229-10.769-29.621-13.783l-11.621-5.4793-0.6905-6.8695c-0.3798-3.7782-2.2226-20.82-4.0951-37.87-1.8726-17.05-5.9073-54.4-8.9662-83s-7.9962-74.275-10.972-101.5c-9.8217-89.86-9.9392-91.132-8.5018-92.02 0.7138-0.4412 3.3608-1.1026 5.8823-1.4697 2.5215-0.3672 18.085-3.1425 34.585-6.1674 30.737-5.6349 43.476-7.9458 60.992-11.064l9.9921-1.7787 6.133-21c3.3731-11.55 10.963-37.425 16.866-57.5 5.9029-20.075 14.297-48.65 18.655-63.5 17.386-59.256 24.161-82.314 32.909-112 5.0242-17.05 12.42-42.25 16.435-56 8.5341-29.227 13.801-47.111 24.626-83.624 9.6054-32.4 11.067-18.928-10.107-93.18-9.9-34.718-18-63.897-18-64.842 0-1.7475 2.543-3.0569 75.674-38.965 15.496-7.6087 28.451-14.282 28.79-14.83 0.3388-0.5481 4.8784-13.048 10.088-27.777 14.203-40.157 16.601-46.703 17.442-47.612 0.4227-0.4573 24.11 16.614 52.637 37.936 28.528 21.322 69.578 51.986 91.223 68.141 36.841 27.497 39.326 29.545 38.904 32.064-0.248 1.4795-4.621 17.99-9.7179 36.69s-12.752 46.825-17.012 62.5c-4.2599 15.675-10.114 37.164-13.009 47.753l-5.264 19.253 28.191 69.747c15.505 38.361 30.837 76.272 34.071 84.247 6.516 16.069 8.1786 20.183 50.519 125 16.329 40.425 30.105 74.288 30.612 75.25 0.8554 1.6226 3.8676 1.75 41.387 1.75h40.465l-0.01 6.25c-0.01 7.1372-3.5077 133.87-4.9702 179.87l-0.9736 30.619 5.5067 25.881c3.0287 14.234 6.8733 32.303 8.5436 40.152 3.8076 17.893 4.3904 16.327-8.6015 23.115-14.739 7.7001-30.4 15.966-58 30.613-12.65 6.7129-27.95 14.805-34 17.982-6.05 3.1771-23.287 12.294-38.305 20.26s-27.466 14.321-27.663 14.122c-0.1972-0.1992-4.4799-9.3621-9.517-20.362s-11.561-25.175-14.498-31.5c-2.9368-6.325-10.581-22.975-16.986-37-20.236-44.305-19.657-43.182-21.975-42.627-2.8578 0.6847-43.106 8.2601-54.056 10.174-32.394 5.6628-64.775 10.499-83 12.395-15.338 1.596-17.563 1.7731-39.79 3.165l-20.741 1.2989-7.9239 24.079c-4.3582 13.243-10.637 33.064-13.953 44.047-10.347 34.269-31.669 96.564-32.992 96.389-0.3303-0.044-3.7505-1.5971-7.6005-3.4518zm-10.564-56.219c0.5571-2.0625 2.9854-10.5 5.3963-18.75s7.4063-25.35 11.101-38c3.6946-12.65 8.6752-29.3 11.068-37 2.3927-7.7 6.9191-22.55 10.058-33 10.576-35.205 21.103-69.834 29.942-98.5 4.8333-15.675 12.493-40.65 17.022-55.5 7.7644-25.46 14.876-48.632 33.302-108.5 4.3164-14.025 11.722-38.1 16.456-53.5 4.7346-15.4 12.486-40.6 17.226-56 4.7398-15.4 12.413-40.375 17.052-55.5 4.6391-15.125 11.975-38.975 16.301-53 26.841-87.007 38.632-125.35 47.048-153 3.4322-11.275 8.6495-28.15 11.594-37.5 2.9446-9.35 6.7656-21.725 8.491-27.5s5.8536-19.176 9.1737-29.78l6.0365-19.28-1.066-10.87c-3.5787-36.491-10.422-42.226-30.741-25.766-11.083 8.9785-15.538 12.94-23.72 21.096-5.2437 5.2267-13.671 14.362-18.728 20.301-5.0568 5.939-9.7789 11.422-10.494 12.185-1.4316 1.5274 1.9479-15.423 5.3605-26.886 4.1997-14.108 15.666-40.938 22.728-53.181 5.4378-9.4277 5.4336-9.1772 0.2116-12.474-6.1822-3.9027-29.98-18.394-31.863-19.402-1.3149-0.7043-2.7513 1.2711-7.888 10.848-3.4541 6.44-8.8666 16.434-12.028 22.209-6.1262 11.192-21.591 39.745-29.422 54.324-4.7796 8.8978-7.0571 11.171-4.0416 4.0341 0.8966-2.122 6.5239-18.483 12.505-36.358 5.9813-17.875 13.4-39.25 16.486-47.5 3.0859-8.25 5.8395-15.7 6.1191-16.555 0.4877-1.492-14.93-12.945-17.426-12.945-1.0084 0-1.797 2.0405-11.788 30.5-3.0893 8.8-6.7537 19.15-8.1432 23-3.3887 9.3891-25.554 74.386-40.752 119.5-15.983 47.443-24.973 74.947-32.359 99-3.2933 10.725-6.6797 21.525-7.5252 24-2.239 6.5537-18.057 60.904-31.142 107-2.5759 9.075-7.5124 27.075-10.97 40-3.4575 12.925-10.67 38.575-16.028 57-5.3578 18.425-12.619 43.625-16.136 56-3.5168 12.375-8.1636 28.35-10.326 35.5-2.1626 7.15-6.4536 22-9.5355 33-3.0818 11-6.2294 21.857-6.9945 24.127-0.7652 2.2699-4.5588 15.32-8.4303 29s-8.5757 30.048-10.454 36.373c-1.878 6.325-5.6666 19.375-8.419 29s-8.908 31-13.679 47.5c-4.7712 16.5-12.436 43.05-17.033 59-4.5969 15.95-11.081 38.417-14.408 49.926-8.4109 29.091-8.2167 27.19-2.9239 28.609 2.392 0.6414 8.3809 2.4707 13.309 4.0652 11.346 3.6712 13.071 3.6857 14.314 0.1204 0.5327-1.5283 5.9272-14.916 11.988-29.75 6.0605-14.834 15.391-37.771 20.735-50.971 12.075-29.827 19.598-47.847 20.249-48.5 2.6069-2.6156-1.5729 99.545-4.6642 114-2.1259 9.9408-5.2197 28.194-4.8426 28.571 0.2208 0.2208 5.8532-10.73 12.516-24.335 27.879-56.923 41.206-83.677 41.216-82.736 0.01 0.55-2.656 32.5-5.9144 71-5.556 65.647-5.8196 70.106-4.2399 71.703 2.6898 2.7193 16.614 13.741 17.396 13.77 0.3913 0.015 1.1672-1.6608 1.7243-3.7233zm-11.034-230.54c-14.112-9.5099-12.422-40.675 2.2071-40.709 2.5901-0.01 10.543 7.6467 12.807 12.323 7.2866 15.052-3.7729 35.961-15.014 28.386zm156.04-538.42c-9.6415-8.1128-7.3321-29.297 3.1938-29.297 7.1487 0 12.865 7.513 12.865 16.908 0 13.286-7.8219 19.32-16.059 12.389zm232.34 693.18c-0.2198-0.9857-8.9688-23.083-24.704-62.395-4.7154-11.78-8.4584-21.534-8.318-21.674 0.2131-0.213 14.462 10.041 25.368 18.257 37.918 28.562 42.011 31.216 41.012 26.586-3.1989-14.823-5.2017-32.632-4.6952-41.75l0.5555-10 6.9023 11.5c11.456 19.087 23.644 33.592 35.135 41.815l4.0371 2.8889 6.2892-11.015 6.2893-11.015-2.1833-5.5869c-2.2284-5.7024-10.791-28.632-27.666-74.087-5.2069-14.025-12.738-34.275-16.737-45-8.5152-22.841-20.915-56.211-32.885-88.5-4.6897-12.65-11.984-32.225-16.209-43.5-4.2253-11.275-11.421-30.625-15.991-43-9.8616-26.707-24.745-66.734-35.139-94.5-4.1176-11-11.236-30.125-15.819-42.5-10.288-27.779-23.149-62.365-34.212-92-4.6198-12.375-9.842-26.436-11.605-31.246-4.0324-11.002-3.0171-11.845-11.433 9.4956-42.377 107.46-55.426 166.68-47.765 216.75 5.5721 36.418 25.722 108.32 43.717 156 1.3493 3.575 5.3965 14.375 8.9938 24 40.258 107.71 89.894 195.47 118.58 209.65 4.6477 2.2978 8.9012 2.7099 8.48 0.8217zm-40.07-171.03c-13.516-5.683-15.362-33.139-2.6972-40.123l4.0146-2.2141 4.4854 2.004c20.512 9.1647 14.782 48.989-5.8028 40.333zm-192.35 97.09c7.3503-0.7857 16.575-1.9095 20.5-2.4975 3.9248-0.588 11.636-1.7064 17.136-2.4854 18.39-2.6046 41.973-6.5862 44.5-7.5128 1.375-0.5042 5.875-1.4463 10-2.0936 4.125-0.6472 8.0625-1.6303 8.75-2.1847 0.6875-0.5543 1.25-0.7922 1.25-0.5286s2.3625-0.052 5.25-0.7019l5.25-1.1811 0.2783-13.69 0.2783-13.69-2.5438-0.9671c-1.3991-0.532-6.9243-1.6787-12.278-2.5484-5.354-0.8697-10.634-1.9709-11.734-2.4471-2.2268-0.964-9.6417-2.5711-16.5-3.5761-2.475-0.3627-4.95-1.0114-5.5-1.4417-0.55-0.4302-4.7919-1.5501-9.4265-2.4887-4.6345-0.9386-9.3595-2.0856-10.5-2.5489-1.1404-0.4633-7.4735-2.2934-14.074-4.0669-6.6-1.7735-12.356-3.5269-12.791-3.8964-0.9397-0.7986 10.479-3.9231 33.291-9.1092 4.675-1.0628 9.175-2.227 10-2.587 0.825-0.3601 5.775-1.6601 11-2.889 22.575-5.3097 21.229-4.1373 12.522-10.906-10.87-8.4495-30.776-18.431-47.25-23.692-8.7973-2.8094-8.9931-3.7663-1.2635-6.176 3.2953-1.0273 5.9915-2.2648 5.9915-2.75s0.711-0.8822 1.58-0.8822c5.5463 0 15.42-14.935 15.42-23.324 0-5.2912-13.219-11.734-29-14.134-2.475-0.3764-7.7435-1.3273-11.708-2.1133-3.9644-0.7859-10.175-1.4289-13.801-1.4289h-6.5932l-1.5737 3.75c-13.255 31.585-31.239 85.406-41.35 123.75-3.3355 12.65-6.7082 25.25-7.4951 28-0.7868 2.75-2.0932 7.8834-2.9031 11.408l-1.4726 6.4076 21.698-0.6749c11.934-0.3712 27.712-1.3177 35.062-2.1033zm-278.3-81.7c19.021-70.21 21.43-79.404 20.936-79.898-2.4232-2.4231-46.605 7.3142-45.973 10.132 0.2797 1.2463 1.4227 17.341 2.54 35.766 1.1172 18.425 2.236 35.975 2.4861 39 0.2502 3.025 0.9158 13.6 1.4792 23.5 0.5633 9.9 1.3049 20.925 1.648 24.5l0.6237 6.5 3.863-14c2.1247-7.7 7.7032-28.175 12.397-45.5zm600.93-38.5c0.8568-28.05 1.8394-56.944 2.1835-64.209l0.6257-13.209-20.119-0.2909c-14.235-0.2058-20.119 0.033-20.118 0.8176 0 1.5187 13.958 59.512 14.554 60.477 0.2627 0.4251 3.8631 14.867 8.0009 32.094 4.1378 17.226 8.5128 34.921 9.7222 39.321l2.199 8 0.6975-6c0.3836-3.3 1.3985-28.95 2.2553-57zm-273.87-86.743c-1.2249-3.9912-6.6802-22.894-12.123-42.007-11.473-40.288-9.8487-37.819-15.127-23-2.3018 6.4625-7.8132 21.625-12.248 33.694-9.6973 26.394-9.6649 23.571-0.303 26.372 13.206 3.9519 36.64 11.292 38.741 12.134 3.266 1.3095 3.3969 0.4214 1.0598-7.1932zm-135.66-487.36c2.2701-5.5584 7.2106-18.158 10.979-28 3.7683-9.8416 9.6206-25.094 13.005-33.894 3.3846-8.8 6.0319-16.512 5.883-17.137-0.2338-0.9813-12.565 3.9846-31.51 12.689-2.3315 1.0712-4.4969 1.9477-4.8119 1.9477-0.3151 0-2.9075 1.0548-5.7609 2.3439-2.8535 1.2892-7.1006 3.1576-9.4381 4.1519-5.6853 2.4185-6.369-0.403 16.331 67.397 0.645 1.9268 0.6876 1.8509 5.3231-9.4993zm-3223.3 849c0.34086-7.6396 1.2729-35.04 2.0712-60.89 1.3813-44.73 2.662-83.625 5.9762-181.5 0.81014-23.925 2.5904-79.05 3.9561-122.5s2.7278-84.85 3.0269-92c0.29906-7.15 1.4243-42.25 2.5005-78s2.2017-71.075 2.5011-78.5c0.29939-7.425 1.2176-34.2 2.0404-59.5 0.82282-25.3 2.1637-65.8 2.9797-90 2.3061-68.387 6.4359-197.77 7.0382-220.5 0.7236-27.308 0.70657-27.213 4.7469-26.534 1.7589 0.2957 6.798 0.9902 11.198 1.5432 4.4 0.5531 14.75 1.8875 23 2.9654s20.175 2.6344 26.5 3.459c6.325 0.8245 20.275 2.6553 31 4.0686 10.725 1.4132 26.475 3.4637 35 4.5566 8.525 1.093 24.275 3.1371 35 4.5426s24 3.0932 29.5 3.7503l10 1.1949 0.25103 480.61 0.25103 480.62-3.251 0.5923c-1.7881 0.3257-21.251 3.3054-43.251 6.6215-22 3.3162-44.05 6.6711-49 7.4553-4.95 0.7843-15.075 2.337-22.5 3.4504s-18.225 2.7476-24 3.6317c-5.775 0.884-16.35 2.4658-23.5 3.5152-12.908 1.8944-61.036 9.2136-69.327 10.543l-4.3274 0.6939 0.61974-13.89zm52.54-43.5c4.675-1.6542 10.75-3.6903 13.5-4.5247 2.75-0.8343 5.675-1.7919 6.5-2.1279 0.825-0.3361 1.725-0.6888 2-0.7838s1.175-0.4492 2-0.787 3.525-1.1305 6-1.7614 4.95-1.4742 5.5-1.8738c0.55-0.3997 3.834-1.5585 7.2978-2.5751 7.9473-2.3324 6.993 0.7407 9.2352-29.739 1.0626-14.445 2.1693-28.289 2.4593-30.764 0.45619-3.8936 2.19-25.876 4.0226-51 0.30087-4.125 0.97601-12.9 1.5003-19.5 0.5243-6.6 0.99591-13.35 1.048-15 0.15004-4.7492 0.52726-2.958 7.0551 33.5 3.3975 18.975 8.727 48.675 11.843 66l5.6662 31.5 11.681-0.079c14.254-0.096 11.858 4.9437 16.607-34.94 4.7952-40.275 5.1255-42.773 5.5939-42.305 0.41877 0.4188 3.0581 15.564 7.9858 45.823 4.7589 29.224 3.6117 26.187 9.7914 25.912 2.8671-0.1277 5.7753-0.6653 6.4628-1.1946 0.99663-0.7674 1.25-89.646 1.25-438.48v-437.52l-5.5334 0.5711c-4.7068 0.4858-28.333 5.5448-29.286 6.2711-0.73347 0.5587-3.7523 13.786-11.15 48.858-4.3089 20.427-8.3987 39.151-9.0884 41.61l-1.2541 4.4702-0.73631-3.5c-0.40497-1.925-2.899-23.075-5.5422-47s-5.2053-43.776-5.6934-44.112c-0.84468-0.5826-15.929-2.008-16.388-1.5487-0.48615 0.4862-6.4817 37.15-11.31 69.161-2.8204 18.7-5.4426 35.018-5.8271 36.263-0.76947 2.4906-5.1689-19.444-15.15-75.534-6.7236-37.784-5.9184-35.228-11.1-35.228-3.8807 0-3.9416 0.057-3.9783 3.75-0.0205 2.0625-0.25282 8.25-0.51624 13.75-0.26343 5.5-1.5881 56.35-2.9436 113-1.3556 56.65-2.7204 108.4-3.0329 115-0.64113 13.539-1.9554 64.688-6.9245 269.5-1.9016 78.375-3.7158 150.6-4.0316 160.5-0.31584 9.9-1.6958 62.325-3.0666 116.5s-2.7734 104.01-3.1169 110.75c-0.72626 14.244-1.5701 13.517 10.67 9.1864zm1053-252.9c0-252.48-0.2394-310-1.2901-310-1.2014 0-15.008 2.4942-63.71 11.509-10.725 1.9853-25.575 4.6905-33 6.0117-7.425 1.3211-19.303 3.4712-26.395 4.7779l-12.895 2.3759 0.693-28.587c0.3812-15.723 0.8944-32.862 1.1404-38.087s1.5761-50.225 2.9556-100c1.3796-49.775 2.7147-94.1 2.9669-98.5s0.4754-12.084 0.4959-17.076l0.037-9.0759 9.75-1.6478c5.3625-0.9063 16.725-2.7685 25.25-4.1382 8.525-1.3698 25.4-4.0968 37.5-6.06 41.543-6.7404 51.107-8.2826 99.5-16.043 8.525-1.3672 29.45-4.744 46.5-7.5041 17.05-2.76 37.862-6.129 46.25-7.4865 8.3875-1.3575 22.338-3.5959 31-4.9743 8.6625-1.3784 19.8-3.1742 24.75-3.9908 4.95-0.8165 21.375-3.4829 36.5-5.9252 68.615-11.079 78.42-12.665 93-15.041 20.475-3.3359 18.65-3.6851 19.404 3.7128 0.6929 6.7936 6.0678 82.14 10.076 141.25 3.4257 50.516 7.088 103.42 9.0573 130.83 1.936 26.948 6.7639 25.106-81.538 31.12-5.225 0.3559-10.625 0.8425-12 1.0813-3.0702 0.5333-20.514 2.1665-32 2.9961-4.675 0.3377-12.55 1.0284-17.5 1.535s-12.15 1.171-16 1.4765c-3.85 0.3056-8.9125 0.7873-11.25 1.0706l-4.25 0.515v321.94 321.94h-92.5-92.5v-310zm104.4 234.5c8.0401-95.963 9.2826-108.93 9.5332-99.5 0.079 2.9524 8.031 75.01 13.768 124.75l1.6435 14.25h17.828 17.828l-0.2517-290.53-0.2517-290.53h-28.918c-34.594 0-29.541-5.5014-34.735 37.814-5.4722 45.63-4.1825 47.866-11.881-20.602-1.0114-8.9942-2.077-16.591-2.3681-16.882-0.5453-0.5454-12.015 1.7459-13.518 2.7003-1.1263 0.7155-1.6149 8.7174-3.7113 60.779-0.9798 24.334-2.0679 43.909-2.4179 43.5s-2.0747-15.369-3.8327-33.244c-2.7864-28.331-7.0401-66.259-7.472-66.624-0.081-0.068-3.7464-0.4-8.1464-0.738s-11.792-1.0474-16.426-1.5765c-4.6345-0.5291-8.797-0.7329-9.25-0.453-0.453 0.28-0.8236 130.37-0.8236 289.1v288.59l12.75-0.7043c15.712-0.8678 13.174 5.8086 18.657-49.088 2.5818-25.85 5.3251-52.175 6.0963-58.5 0.7711-6.325 1.9462-16.675 2.6112-23s1.3497-11.05 1.5217-10.5c0.1719 0.55 2.5945 19.675 5.3837 42.5 2.7891 22.825 6.1598 49.375 7.4904 59s3.1073 22.86 3.9483 29.41c0.8409 6.5507 1.6856 12.067 1.877 12.258 0.6514 0.6514 18.162 1.9396 18.814 1.3842 0.3572-0.3041 2.2708-19.903 4.2523-43.553zm-176.4-569.5c5.225-0.5692 12.875-1.4517 17-1.9612 7.3809-0.9117 11.127-1.2635 28-2.6298 4.675-0.3786 8.725-0.9963 9-1.3726 0.275-0.3764 10.357-1.4786 22.405-2.4493s22.622-2.1407 23.5-2.5999c0.8774-0.4593 10.82-1.5749 22.095-2.4792 11.275-0.9044 22.525-2.0399 25-2.5235s10.125-1.3884 17-2.0108 19.7-1.9885 28.5-3.0358c8.8-1.0474 23.2-2.6043 32-3.4599 18.16-1.7656 20.028-1.9853 23.5-2.7637 1.375-0.3083 9.025-1.096 17-1.7504s14.879-1.4165 15.342-1.6936c0.4632-0.2771 3.1632-0.6235 6-0.7698 2.8369-0.1463 9.4329-0.75 14.658-1.3416 5.225-0.5915 12.425-1.3315 16-1.6443s11.225-1.2162 17-2.0076 17.925-2.1456 27-3.0095c9.075-0.8638 17.968-1.8073 19.762-2.0967 1.7939-0.2894 6.0689-0.8358 9.5-1.2143l6.2383-0.6881-0.3599-34c-0.198-18.7-0.6819-34.349-1.0754-34.775-0.7744-0.8392-15.577-5.0345-26.065-7.3873-3.575-0.802-7.4-1.8672-8.5-2.3671s-5.6-1.8201-10-2.9338c-12.197-3.0871-16.93-4.6533-15.919-5.2673 0.5055-0.3069 6.5441-1.9943 13.419-3.7498 6.875-1.7555 17.675-4.5486 24-6.2068 6.325-1.6583 13.873-3.4965 16.772-4.085l5.2724-1.07-0.2724-17.579-0.2724-17.579-19-1.1621c-10.45-0.6391-24.175-1.6302-30.5-2.2023-15.466-1.3988-23.696-1.9415-41.75-2.7527-16.854-0.7572-19.777-2.1489-9.2207-4.3891 3.3161-0.7037 6.2722-1.6726 6.5691-2.153s0.9784-0.6023 1.5145-0.271 1.5175 0.188 2.1809-0.3185 3.9062-1.4964 7.2062-2.1999c3.3-0.7034 6.45-1.5526 7-1.8871 0.55-0.3344 1.45-0.7005 2-0.8135 1.8773-0.3857 14.981-4.1352 34.5-9.8719 10.725-3.1521 22.875-6.599 27-7.6597 4.125-1.0608 8.5822-2.4665 9.9048-3.1239l2.4048-1.1953-0.6656-30.428c-0.3661-16.735-0.8911-30.653-1.1666-30.928-0.5831-0.583-16.765 1.4682-22.834 2.8945-2.2787 0.5354-10.443 1.8661-18.143 2.957s-21.2 3.1286-30 4.5284c-31.804 5.0588-65.035 10.054-73.5 11.048-3.025 0.3552-5.95 0.9914-6.5 1.4138s-6.0707 1.2886-12.268 1.9249c-6.1974 0.6363-13.397 1.6023-16 2.1466-2.6025 0.5444-9.4568 1.6542-15.232 2.4663-5.775 0.812-15.9 2.3781-22.5 3.48-17.507 2.9231-49.241 7.7301-61 9.24-1.1 0.1412-2.225 0.5065-2.5 0.8117s-7.475 1.367-16 2.3596c-8.525 0.9925-15.95 2.1417-16.5 2.5537s-5.95 1.3083-12 1.9917-13.25 1.6733-16 2.1998-12.425 2.0945-21.5 3.4846c-9.075 1.39-23.475 3.6076-32 4.9281-8.525 1.3204-19.212 2.9565-23.75 3.6358l-8.25 1.235v50.385c0 43.303 0.2012 50.308 1.4314 49.836 0.7873-0.3021 6.5248-1.7424 12.75-3.2008 6.2252-1.4583 11.994-2.9091 12.819-3.224 1.3845-0.5284 5.6131-1.6114 27.5-7.0429 4.4-1.0919 13.4-3.4092 20-5.1496 6.6-1.7403 16.275-4.2338 21.5-5.5412 5.225-1.3073 11.954-3.0645 14.954-3.9047 6.408-1.7952 7.5459-1.4282 2.9465 0.9502-3.5903 1.8566-4.8584 2.5786-18.9 10.761-5.225 3.0446-15.8 9.1188-23.5 13.498-11.931 6.786-31.13 17.842-42 24.186-6.1046 3.5631-23.119 13.36-26.742 15.398-3.7866 2.1302-4.7925 3.5853-2.5082 3.6286 0.6875 0.013 8.9 0.9142 18.25 2.0027 33.683 3.9213 52.05 5.9154 54.75 5.9442 6.5442 0.07 0.5865 2.4949-35.545 14.468-21.062 6.9794-38.908 13.069-39.657 13.532-1.1447 0.7075-1.0956 3.3695 0.3077 16.686 0.9183 8.7142 1.9227 18.342 2.2319 21.395l0.5623 5.5511 12.175-1.2829c6.6962-0.7055 16.45-1.7485 21.675-2.3176zm157.4-142.8c-6.2488-7.8308-6.2341-7.2835-0.394-14.715 6.1143-7.7803 5.6621-7.797 11.857 0.4388 5.4851 7.2918 5.5526 6.6799-1.7385 15.776-4.3016 5.3666-4.2376 5.3764-9.7249-1.5zm410.6 620.2v-156.61l-18 0.709-18 0.709-0.01-2.3515c-0.01-2.4031-2.5182-43.311-3.4859-56.852-0.2948-4.125-1.6462-26.175-3.0032-49-1.3569-22.825-3.5915-59.95-4.9658-82.5s-2.742-45.05-3.0393-50-0.788-11.362-1.0903-14.25l-0.5498-5.25h20.144 20.144l6.7407-5.5454 6.7407-5.5454 1.7396-32.705c0.9567-17.988 1.9567-35.405 2.2222-38.705s1.5873-26.25 2.9373-51c2.4099-44.182 3.461-62.431 7.4585-129.5 1.0982-18.425 2.9207-50.15 4.05-70.5 2.7134-48.893 3.7887-65.655 4.241-66.107 0.2053-0.2054 31.39 1.8505 69.3 4.5685s75.901 5.414 84.426 5.9911c8.525 0.5772 20.9 1.4707 27.5 1.9857s16.275 1.205 21.5 1.5333 11.638 0.8645 14.25 1.1916l4.75 0.5948v180.87 180.87h49.92 49.92l0.5718-6.25c0.3145-3.4375 1.0405-15.025 1.6134-25.75 0.5728-10.725 1.705-30.975 2.5158-45 2.0066-34.707 5.944-105.91 8.9305-161.5 1.3592-25.3 2.6932-48.925 2.9644-52.5s0.7509-12.35 1.0661-19.5c0.3151-7.15 0.8085-14.912 1.0964-17.25l0.5233-4.25h103.44 103.44l0.2528 174.75 0.2528 174.75h13.227 13.227l0.4811 4c0.2646 2.2 0.9588 14.575 1.5428 27.5 0.5839 12.925 1.7291 36.55 2.5449 52.5s2.8379 57.125 4.4936 91.5c1.6556 34.375 3.4607 70.796 4.0113 80.936 0.5505 10.14 0.6569 18.778 0.2364 19.198-0.4205 0.4192-12.914 6.01-27.764 12.424s-28.462 12.294-30.25 13.066l-3.25 1.4039v120.36 120.36l-9.25 1.1185c-5.0875 0.6152-18.925 2.0143-30.75 3.1091s-24.425 2.2786-28 2.6306-37.212 3.6332-74.75 7.2915l-68.25 6.6515v-137.78c0-101.2-0.3-137.8-1.1-137.8-0.6169 0-5.6794 0.6742-11.25 1.4982-5.5705 0.824-17.103 2.3802-25.628 3.4582-14.107 1.7839-24.176 3.1109-56.372 7.4287-5.9794 0.8019-11.22 1.8308-11.647 2.2864-0.4264 0.4557-4.4572 44.928-8.9574 98.828-10.698 128.14-12.466 148.28-13.071 148.88-0.5863 0.5864-33.933 4.738-109.45 13.627-4.95 0.5827-16.2 1.9185-25 2.9685s-24.1 2.8461-34 3.9914c-9.9 1.1452-23.387 2.7462-29.97 3.5577-6.5836 0.8115-12.321 1.4754-12.75 1.4754s-0.7799-70.473-0.7799-156.61zm49.592 103.36c0.4078-0.4125 1.7915-0.75 3.0749-0.75 1.2833 0 2.3333-0.2001 2.3333-0.4448 0-5.5949 7.0056-106.89 7.4213-107.31 0.5192-0.5192 4.3515 16.812 11.665 52.755 8.4912 41.73 7.3518 37.83 11.22 38.407 9.5557 1.4251 35.041 4.5735 35.226 4.3519 0.1194-0.1423 2.0904-26.809 4.38-59.259 4.2724-60.551 5.161-71.759 5.6504-71.27 0.5375 0.5375 3.4981 25.5 8.441 71.173 2.7324 25.246 5.1622 46.097 5.3998 46.335 0.2375 0.2376 4.1813 0.6105 8.7639 0.8286 4.5826 0.2182 12.319 0.6678 17.193 0.9991 7.221 0.4909 8.7206 0.3556 8.1033-0.7314-0.6099-1.0737-0.495-1.0901 0.5892-0.084 1.0867 1.0087 10.91 1.9049 10.961 1 0.6436-11.39 4.5079-96.362 5.9461-130.75 1.0927-26.125 2.2283-50.65 2.5238-54.5 0.2954-3.85 1.1989-25.225 2.0079-47.5 0.8089-22.275 1.7096-45.675 2.0016-52 0.6517-14.119 3.099-94.616 4.4995-148 3.3045-125.96 5.2168-260.18 4.8082-337.48l-0.3012-56.983-9.5-1.6355c-5.225-0.8995-12.312-2.2346-15.75-2.9668-8.3014-1.7683-7.2218-5.7476-13.177 48.569-2.8945 26.4-5.5338 49.125-5.865 50.5-0.9595 3.9826-1.7783-1.9649-7.5857-55.094-6.1222-56.009-4.6342-50.434-13.686-51.275-3.9198-0.3643-7.8715-1.0579-8.7815-1.5413-0.9101-0.4834-3.6435-1.0388-6.0742-1.2342l-4.4195-0.3552-5.273 33.5c-2.9002 18.425-7.2922 46.1-9.76 61.5-2.4679 15.4-4.6645 29.125-4.8816 30.5-0.948 6.0072-1.6899-3.8053-4.6873-62-1.7422-33.825-3.3513-62.411-3.5758-63.524-0.352-1.7459-2.1677-2.352-13.196-4.4048-7.0332-1.3092-17.949-3.414-24.258-4.6774-13.242-2.6518-12.564-3.0654-12.847 7.8448-0.1176 4.544-0.874 35.712-1.6808 69.262s-1.7199 68.875-2.0291 78.5-2.1157 83.2-4.0145 163.5c-1.8987 80.3-3.705 154.1-4.014 164-0.3089 9.9-1.4399 53.1-2.5133 96-2.0996 83.917-4.4372 174.54-5.417 210-1.9264 69.718-2.3574 88.944-2.0068 89.511 0.4942 0.7997 22.085-2.2506 23.085-3.2613zm56.937-384.72c-4.4559-4.5633-4.3259-5.5031 1.7703-12.793l3.5653-4.2636 4.3178 4.6509c2.3747 2.5579 4.9413 5.2929 5.7034 6.0778 1.522 1.5673 1.5778 1.4882-4.7303 6.7052-5.4326 4.493-5.8866 4.4769-10.626-0.3772zm365.47 369.9c5.225-1.0331 12.614-2.3608 16.421-2.9504 3.8063-0.5897 7.3621-1.345 7.9017-1.6784 0.5396-0.3335 2.3753-0.7278 4.0793-0.8761 1.7041-0.1483 5.7983-0.766 9.0983-1.3726s8.2127-1.3755 10.917-1.7087c2.7045-0.3332 6.0795-0.9166 7.5-1.2965l2.5828-0.6908 0.2512-408.68 0.2512-408.68h-20.398-20.398l-1.1882 8.75c-0.6535 4.8125-2.909 21.125-5.0121 36.25s-4.8469 35.705-6.0975 45.734c-1.2505 10.029-2.432 18.076-2.6255 17.882-0.1936-0.1935-2.1544-13.799-4.3574-30.234-2.2031-16.435-5.4686-40.682-7.2567-53.882l-3.2512-24-13.701-0.2782-13.701-0.2781-0.2582 57.278-0.2582 57.278-15.369-46.5c-25.336-76.655-24.051-73.403-24.111-61-0.054 11.242-6.1676 267.09-11.003 460.5-6.5641 262.54-8.4344 356.1-6.9758 349 1.9601-9.5444 8.6276-44.026 15.953-82.5 10.413-54.695 13.268-69.072 13.643-68.697 0.1707 0.1707 2.8081 20.985 5.8609 46.254s6.194 50.444 6.9804 55.944c1.2366 8.6484 4.9146 38.108 7.1135 56.978 0.8141 6.9853 1.7522 5.4972 2.823-4.4777 0.8471-7.8907 10.588-76.335 10.909-76.656 0.1257-0.1256 1.0317 5.0332 2.0133 11.464 3.5322 23.138 9.7446 60.836 11.19 67.9 0.8108 3.9644 1.4743 7.4794 1.4743 7.8113 0 0.7552 6.7077-0.159 19-2.5895zm-16.396-366.32c-5.579-8.9511-5.573-8.2415-0.077-9.0658 4.1534-0.6228 4.9436-0.3731 9.5746 3.0264l5.0476 3.7052-4.787 4.8601c-2.6329 2.6731-4.8699 4.8601-4.9711 4.8601-0.1013 0-2.2557-3.3237-4.7876-7.386zm-192.6 105.3c9.625-1.144 18.85-2.491 20.5-2.9933 1.65-0.5022 10.397-1.6545 19.438-2.5606 9.0411-0.906 17.404-2.0143 18.583-2.4629 1.1797-0.4485 6.2182-1.1341 11.197-1.5236 8.1796-0.6399 12.523-1.7004 11.252-2.7476-0.9648-0.7954-59.127-32.72-59.611-32.72-0.2771 0-2.609-1.2375-5.1819-2.75l-4.6781-2.75 5-0.6624c2.75-0.3643 7.1375-0.7018 9.75-0.75 2.6125-0.048 4.75-0.4713 4.75-0.9403s4.6125-1.1567 10.25-1.5282c5.6375-0.3716 11.6-0.8476 13.25-1.0579s7.05-0.6997 12-1.0876c4.95-0.3878 9.7579-1.1031 10.684-1.5894 0.9263-0.4863 2.6192-0.8842 3.762-0.8842 2.0716 0 2.077-0.1116 1.8157-37.75l-0.262-37.75-6-2.0596c-3.3-1.1328-6.675-2.3495-7.5-2.7037s-4.2-1.3942-7.5-2.3111-6.45-2.0168-7-2.4443-3.25-1.4633-6-2.3019c-2.75-0.8385-10.175-3.4036-16.5-5.7001s-13.51-4.7194-15.967-5.3843c-2.4568-0.6649-4.0291-1.4794-3.494-1.8102 1.112-0.6872 31.917-8.2086 37.953-9.2666 2.1958-0.3849 4.4458-0.9964 5-1.359s5.5076-1.6814 11.008-2.9307c5.5-1.2493 11.35-2.6176 13-3.0405l3-0.7691 0.2674-25.317 0.2674-25.317-8.7674 0.5942c-4.8221 0.3269-15.517 1.0618-23.767 1.6333-21.175 1.4667-64.788 3.9883-68.982 3.9883h-3.5183v112.11 112.11l2.25-0.5641c1.2375-0.3103 10.125-1.5002 19.75-2.6442zm297.1-6.0909c1.8695-0.5954 4.2992-1.4475 5.3992-1.8936s5.9454-2.0397 10.768-3.5413c10.679-3.3254 9.6758-1.1276 8.6615-18.983-0.4686-8.25-1.7532-33-2.8546-55s-2.2586-44.725-2.5716-50.5c-1.6298-30.074-2.4664-46.832-2.4836-49.75v-3.2h-8.4809c-10.511 0-9.1475-9.6454-10.46 74-0.6 38.225-1.3752 78.612-1.7228 89.75-0.3475 11.138-0.4075 20.25-0.1332 20.25s2.0284-0.4871 3.898-1.0824zm-571.1-14.9c4.125-0.612 9.4125-1.6039 11.75-2.2042l4.25-1.0914v-91.745-91.745l-3.125-0.625c-1.7187-0.3437-4.5537-0.625-6.3-0.625-1.7462 0-3.6025-0.4091-4.125-0.9091-0.5225-0.5001-4.325-1.2222-8.45-1.6048-4.125-0.3825-7.8883-0.9314-8.3629-1.2196-0.48-0.2915-0.5897 7.1871-0.2474 16.855 0.3385 9.5584 1.0727 47.754 1.6316 84.879 1.2677 84.206 1.6034 92.232 3.8314 91.609 0.906-0.2533 5.0223-0.9613 9.1473-1.5734zm727.99 339.32c-0.017-1.5427-1.9267-44.566-2.5016-56.359-0.5284-10.84-2.0195-47.36-7.9415-194.5-1.3724-34.1-2.6673-64.151-2.8774-66.78-0.496-6.2035-5.6668-5.3646 50.473-8.1894 27.146-1.3659 53.407-2.7067 58.357-2.9796s10.865-0.5085 13.145-0.5236l4.1452-0.028-0.5147-114.25c-0.2831-62.838-0.8661-114.63-1.2955-115.1-1.2446-1.3554-73.781 2.9583-90.98 5.4105-17.531 2.4995-22.065 3.2901-32.5 5.6677-17.903 4.079-16.067 4.2744-17.862-1.9006-10.92-37.564-8.4856-152.54 5.5082-260.14 3.8874-29.89 2.0368-27.13 19.854-29.615 7.975-1.1124 22.15-3.1714 31.5-4.5757s30.95-4.6099 48-7.1236 31.284-4.8631 31.631-5.2209c0.5607-0.5782 1.5599-17.23 3.5193-58.651 0.3383-7.15 0.6848-13.092 0.7701-13.204 0.1902-0.2507 63.169-5.8358 88.58-7.8554 10.175-0.8088 19.963-1.6863 21.752-1.9502 1.7886-0.2639 11.914-1.1517 22.5-1.973 10.586-0.8212 21.048-1.725 23.248-2.0082 2.2-0.2833 11.908-1.174 21.574-1.9792 17.791-1.4822 26.166-2.235 33.426-3.0046 2.2-0.2332 8.0934-0.7244 13.096-1.0915l9.0965-0.6675 4.1886 16.867c7.4639 30.057 4.2372 24.968 26.36 41.568 19.839 14.886 34.184 25.118 62.758 44.765 97.433 66.991 149.21 162.94 162.46 301.03 9.7749 101.91-1.7635 192.12-36.965 289-46.838 128.91-139.03 220.3-226.67 224.71-15.056 0.7571-15.32 0.9864-15.32 13.335v8.8308l-7 0.5407c-6.1648 0.4763-125.96 4.8004-169 6.1002-8.8 0.2658-21.738 0.7375-28.75 1.0483l-12.75 0.5652v-9.1792-9.1792l-2.75 0.4814c-1.5125 0.2647-8.5297 1.6669-15.594 3.116-7.064 1.4491-18.85 3.551-26.19 4.6708-7.3405 1.1198-22.036 3.8712-32.656 6.1142-23.127 4.8844-25.807 5.3207-25.819 4.204zm151.8-58.109c1.7583-7.5625 5.8626-26.35 9.1207-41.75 7.0722-33.429 8.8699-41.283 9.8511-43.038 0.4067-0.7275 0.6142 20.308 0.4612 46.745l-0.2783 48.068 11.278-0.6286c6.203-0.3458 16.767-0.9201 23.475-1.2762l12.197-0.6476 1.1118-5.1115c0.6116-2.8112 3.9935-23.336 7.5156-45.611 3.522-22.275 8.403-52.425 10.846-67 2.4436-14.575 4.7631-29.093 5.1545-32.263 0.3914-3.1698 1.0181-5.9526 1.3926-6.1841 0.3745-0.2314 1.5219 28.237 2.5499 63.263s1.9769 65.709 2.1087 68.184 0.2818 8.4375 0.3332 13.25l0.093 8.75 3.75 0.023c5.732 0.036 34.642-3.2491 35.557-4.0399 0.4439-0.3836 0.098-11.449-0.7688-24.59-3.7715-57.183-4.4964-165.19-1.5764-234.89 0.53-12.65 1.6492-41.9 2.4872-65s1.7648-46.5 2.0596-52c0.2949-5.5 2.0881-54.1 3.9849-108s3.6815-102.5 3.966-108c1.8378-35.527 5.5458-167.91 5.5038-196.5-0.075-50.847-10.871-76.524-31.463-74.829-7.2397 0.5958-8.1441 3.9682-14.528 54.172-6.6998 52.692-14.115 89.657-17.985 89.657-0.4044 0-0.9732-6.4125-1.2639-14.25-0.4599-12.399-1.3797-18.387-7.0798-46.093-3.6031-17.514-7.327-37.849-8.2752-45.189l-1.724-13.347-6.5721-0.6409c-3.6147-0.3526-7.3249-0.8491-8.2449-1.1034-1.3666-0.3779-1.7734 0.5059-2.2231 4.8303-0.8303 7.9856-3.3866 43.244-5.1325 70.793-0.854 13.475-1.821 25.625-2.1488 27-0.3467 1.4537-2.7965-12.148-5.8535-32.5-7.9022-52.608-10.317-67.681-10.944-68.308-2.0889-2.0889-28.831 8.1168-32.688 12.475-6.3229 7.1441-7.2754 119.53-3.219 379.83 2.1667 139.04 2.4597 300.62 0.611 337-1.9965 39.287-4.1151 72.061-6.2563 96.783-1.0853 12.531-1.9733 23.443-1.9733 24.25 0 1.1201 1.3693 1.4666 5.7959 1.4666h5.7959l3.197-13.75zm57.804-144.47c-5.5196-6.3098-5.5386-5.151 0.1891-11.582l4.7182-5.2975 5.6382 5.7975 5.6382 5.7974-5.7955 5.2673-5.7955 5.2674-4.5927-5.2502zm5.4065-499.14c-2.4754-1.8173-5.7766-4.9769-7.336-7.0213l-2.8353-3.7173 4.2932-5.5648c6.0882-7.8913 12.766-6.6523 20.212 3.7504 7.9044 11.043-3.175 20.745-14.334 12.553zm-105.9 644.2c2.1434-6.3907 2.0636-79.225-0.083-75.751-5.9409 9.6125-41.227-4.0134-55.5-21.432-4.4147-5.3876-4.4809-5.1378 1.7487-6.5981 2.8875-0.6769 5.7-1.5675 6.25-1.979 0.55-0.4116 3.6923-1.5207 6.9829-2.4647 24.019-6.8905 29.688-14.542 37.627-50.784 4.7259-21.573 4.7322-20.212-0.082-17.756-9.6873 4.9421-24.995 4.939-40.439-0.01-11.331-3.6297-11.222-3.3345-3.2159-8.7289 14.058-9.4719 39.627-41.905 39.627-50.264 0-0.6998-15.021-1.3833-57.75-2.6276l-21.25-0.6188v5.1964c0 5.6313 6.6216 176.48 7.444 192.07 0.2756 5.225 0.8011 16.812 1.1677 25.75l0.6666 16.25h38.361c21.098 0 38.398-0.1125 38.445-0.25zm226.42-9.7351c0.55-0.4148 2.8-1.0715 5-1.4595 6.0188-1.0614 25.652-8.0183 37.5-13.288 63.106-28.068 107.4-71.96 139.07-137.81 17.181-35.723 27.557-69.235 35.436-114.45 14.05-80.635 8.8273-187.99-12.917-265.5-36.844-131.34-102.83-223.59-180.97-252.99-8.3669-3.1484-7.5502-4.0506-9.2131 10.179-10.865 92.977-14.913 162.43-12.391 212.56 1.5087 29.986 0.7399 27.307 9.6557 33.648 113.62 80.811 107.52 247.7-11.408 311.71l-7.2331 3.8932-0.017 107.83-0.017 107.83 3.25-0.6949c1.7875-0.3822 3.7-1.0343 4.25-1.4491zm105.5-513.8c-39.286-47.15-38.206-46.048-55.192-56.335-15.31-9.2723-15.019-8.8241-9.3371-14.346 22.917-22.272 71.18 27.787 75.848 78.67 0.5823 6.3479 0.6912 6.4248-11.319-7.9892zm45.873-37.771c-4.4402-6.1082-15.297-22.871-22.662-34.989-16.317-26.847-42.891-54.243-61.16-63.05-3.0531-1.4719-6.9011-3.3307-8.5511-4.1307-1.65-0.7999-8.1077-2.4754-14.35-3.7232l-11.35-2.2687 4.0175-3.1819c20.486-16.226 43.435-10.398 71.683 18.205 26.114 26.44 48.194 71.348 46.321 94.209l-0.3212 3.9203-3.6269-4.9894zm-146.68 276.38c58.85-35.395 60.768-178.15 2.783-207.11-10.673-5.3321-9.4578-12.85-11.52 71.25-0.9102 37.125-1.7935 70.2-1.9629 73.5-0.1695 3.3-0.6414 20.077-1.0487 37.282l-0.7406 31.282 2.898-1.0863c1.5938-0.5975 5.9097-2.8978 9.5909-5.1118zm-331.06-245.28c16.331-5.3541 24.602-7.359 49.986-12.118 6.8955-1.2927 31.193-2.6231 39.128-2.1424l9.75 0.5905v-62.458-62.458h-2.341c-1.2875 0-6.0119 0.494-10.499 1.0978-11.047 1.4867-20.043-1.0115-25.536-7.0916-4.9088-5.4335-7.256-1.1302 16.94-31.058 5.5353-6.8466 11.948-15.236 14.249-18.642l4.1851-6.194-1.9221-3.306c-2.4539-4.2205-3.5218-11.525-2.3246-15.9 1.5508-5.6671-1.3304-7.1049-7.7519-3.8685-0.825 0.4158-4.425 1.0604-8 1.4324-3.575 0.3721-9.65 1.3435-13.5 2.1587s-11.195 2.1375-16.322 2.9386c-5.127 0.801-11.202 1.8708-13.5 2.3773-2.2979 0.5065-11.153 2.1179-19.678 3.5809-18.882 3.2405-16.647 0.2586-17.973 23.974-0.6152 11-1.7564 29.225-2.536 40.5s-1.7132 26.125-2.0747 33l-0.6572 12.5 7.3665 1.8951c4.0515 1.0423 8.0433 2.2523 8.8705 2.6889 0.8273 0.4366 5.1041 2.4428 9.5041 4.4584 11.966 5.4814 18.412 8.6111 24.353 11.824l5.3534 2.8954-7.0109 2.7277c-10.96 4.2642-41.373 21.89-46.596 27.005-1.8647 1.826-1.852 1.9172 0.6894 4.9375 4.3244 5.1393 5.0105 25.418 1.2709 37.568-1.5227 4.9476-1.9224 7.5-1.1743 7.5 0.2125 0 3.7-1.0864 7.75-2.4141zm-2744.6 561.7c-4.6407-0.2963-35.256-2.7064-49-3.8575-7.2139-0.6041-102.22-6.9735-125.5-8.414-9.075-0.5614-26.34-1.0229-38.367-1.0255h-21.867l0.64605-7.75c0.35533-4.2625 0.85831-10.225 1.1177-13.25 0.61558-7.1779 6.8702-90.766 9.4282-126 3.5831-49.355 5.032-68.989 7.6117-103.14l2.5411-33.644-36.681-56.856-36.681-56.856 36.538-36 36.538-36 1.0485-15c0.57669-8.25 1.3026-19.5 1.6132-25 0.31058-5.5 0.78143-12.925 1.0463-16.5 0.2649-3.575 1.3726-22.7 2.4615-42.5s2.1865-38.7 2.4391-42c0.25259-3.3 0.98542-15.675 1.6285-27.5l1.1692-21.5-5.6941-21.5c-3.1317-11.825-7.2578-27.575-9.1689-35-6.6809-25.956-24.603-94.657-29.464-112.94-2.6962-10.143-4.9013-18.918-4.9002-19.5 0.0011-0.5818 13.133-4.5528 29.183-8.8243s29.373-7.9578 29.607-8.1918c0.23404-0.2341-1.4233-19.04-3.683-41.791-3.805-38.3-4.561-47.7-3.825-47.7 0.15568 0 10.393 1.3704 22.75 3.0452 12.357 1.6749 29.442 3.9366 37.967 5.0261 22.15 2.8306 81.606 10.661 94 12.38 5.775 0.8009 16.164 2.2106 23.087 3.1329l12.587 1.6768 5.0764 10.207 5.0764 10.207 24.337 0.7084c13.385 0.3896 26.137 0.9146 28.337 1.1666s10.3 1.1432 18 1.9803c39.611 4.3067 70.8 11.583 106 24.731 82.938 30.978 134.22 81.923 151.63 150.62 25.195 99.44-31.508 225.04-118.38 262.22-9.6306 4.1216-9.6197 4.2168 0.71226 6.2468 86.772 17.049 151.87 106.6 146.72 201.84-10.13 187.2-140.72 287-357.69 273.1zm73.5-29.211c13.475-3.3785 25.4-6.5496 26.5-7.0467 1.1-0.4972 5.5733-1.6603 9.9407-2.5847 4.3674-0.9245 8.6424-2.0512 9.5-2.5038 0.85759-0.4527 3.8093-1.3194 6.5593-1.9262 10.27-2.2659 57.492-17.624 58.5-19.026 0.275-0.3824 1.8344-1.0224 3.4653-1.4223s4.8687-1.5942 7.1951-2.654 4.5025-1.9269 4.8357-1.9269c21.666 0 79.404-67.654 98.572-115.5 34.558-86.262 17.267-177.35-42.068-221.62-3.575-2.6671-6.95-5.201-7.5-5.6308-10.316-8.0619-41.703-21.754-54.5-23.774-2.475-0.3908-5.2223-1.0893-6.1052-1.5521-13.111-6.8739-98.691-6.8864-114.39-0.017-1.1 0.4812-5.825 1.6416-10.5 2.5786s-8.95 2.0484-9.5 2.4699c-0.55 0.4214-2.3218 1.083-3.9374 1.4702-13.825 3.3132-37.196 19.392-46.507 31.997-8.2 11.1-8.07 10.5-8.07 39.1v25.54l33.25 0.018c82.153 0.044 111.47 20.492 113.47 79.139l0.53426 15.657-4.8792 7.8364c-13.896 22.318-40.977 47.792-57.749 54.32-1.1715 0.4559-6.405 2.8502-11.63 5.3205-10.463 4.9471-24.724 10.424-37.318 14.333-4.4998 1.3966-9.0815 2.9291-10.182 3.4056-1.1 0.4766-5.6 1.5888-10 2.4715s-8.693 1.9761-9.5399 2.4296c-0.84695 0.4536-3.8844 1.1472-6.75 1.5413-6.1002 0.839-5.9366 0.098-4.1984 19.029 5.0582 55.09 8.1352 58.853 35.988 44.017 3.575-1.9042 8.7475-4.6629 11.494-6.1305 4.5966-2.4557 15.79-9.2442 22.987-13.941l2.9813-1.9457-2.8829 5c-16.147 28.004-16.358 28.287-39.33 52.628-20.813 22.053-19.71 20.227-13.464 22.301 16.501 5.4809 33.514 4.6101 65.214-3.3379zm122.52-211.74c-0.68133-6.3622-2.485-15.565-11.341-57.863-10.823-51.695-8.8554-63.471 8.6427-51.719 22.527 15.13 26.391 50.913 10.686 98.98-6.2794 19.22-6.9672 20.132-7.9878 10.602zm50.575-7.3494c-6.2097-14.435-15.496-61.587-19.028-96.617-3.3979-33.7 19.723-19.304 33.452 20.827 9.553 27.925 6.344 64.187-6.8098 76.952-4.9889 4.8415-5.0336 4.8347-7.6137-1.1629zm-357.7 205.1c1.7133-5.2303 6.2935-23.47 9.6052-38.25 3.7244-16.622 15.366-57.101 16.041-55.776 0.35731 0.7015 1.2177 4.6505 1.9119 8.7755 6.8052 40.434 17.806 90.006 19.968 89.985 4.6751-0.045 3.7976 14.107 10.54-169.98 1.9036-51.975 3.7054-99.45 4.0041-105.5 0.29866-6.05 1.4267-35.3 2.5068-65s2.2042-57.15 2.498-61 1.2005-25.675 2.015-48.5c0.81442-22.825 1.7212-46.225 2.0151-52 0.29387-5.775 2.0911-53.475 3.9939-106s3.7094-100.68 4.0146-107c0.589-12.204 4.2679-105.91 5.084-129.5 0.26642-7.7 0.61501-14.937 0.77465-16.082 0.39038-2.7995-2.4686-3.9038-15.244-5.8883-12.462-1.9358-10.065-5.3891-15.596 22.47-14.404 72.552-13.92 71.002-14.997 48-0.32189-6.875-0.80962-15.425-1.0838-19-0.72-9.3-3.45-55.7-3.45-58.5 0-2.6117-0.85163-2.8204-16.25-3.9823l-7.75-0.5848-0.0272 38.792c-0.0362 51.557-2.607 87.288-6.0142 83.587-1.2002-1.3035-7.4563-34.993-14.946-80.484-3.8656-23.479-7.2582-43.279-7.5392-44-0.45959-1.1793-19.293-7.8283-22.14-7.8162-0.64166 0-1.3167-0.3499-1.5-0.7836-0.18333-0.4338-2.8083-1.5194-5.8333-2.4126s-7.6125-2.4383-10.194-3.4335c-5.8469-2.2538-5.8533-2.2462-4.6734 5.6381 2.3992 16.032 1.9326 174.95-0.66953 228-0.25632 5.225-1.1385 29.975-1.9603 55-0.82186 25.025-1.9324 57.425-2.468 72-1.3442 36.585-1.909 55.237-3.058 101-0.54546 21.725-1.2143 44.45-1.4864 50.5-0.6057 13.469-3.1402 89.004-4.5129 134.5-3.5002 116.01-1.5697 230.54 3.9835 236.33 2.7981 2.918 23.805-37.85 36.427-70.694 5.3673-13.966 8.6035-21.192 8.957-20 7.6507 25.81 16.52 65.748 18.624 83.867 0.63883 5.5 1.3848 11.912 1.6577 14.25 0.75215 6.4429 4.5873 6.1596 6.7688-0.5zm-4.9-256.8c-9.4955-5.2962-11.045-29.511-2.3565-36.822 3.9932-3.36 12.248-3.5859 16.242-0.4444 15.383 12.1 2.5838 46.452-13.885 37.267zm-5.4422-114.43c-10.219-14.107-3.5065-34.572 8.1679-24.902 7.356 6.093 7.585 21.394 0.4073 27.208-3.3043 2.6765-5.3674 2.1215-8.5752-2.3068zm25.159-308.48c-7.0615-4.9461-7.126-22.887-0.0999-27.809 10.346-7.2467 21.012 4.3444 17.796 19.34-1.9706 9.1885-10.703 13.367-17.696 8.4689zm116.41 519.72c28.197-9.1975 46.036-19.506 70.88-40.959 19.32-16.683 20.292-23.162 5.1815-34.534-28.944-21.782-69.073-14.775-102.65 17.924l-10.459 10.186 3.6764 7.8601c4.9721 10.63 8.7088 30.133 8.739 45.61 0.004 2.1938-3.1427 2.9716 24.632-6.0881zm-230.5-155.9c-1.1633-9.8042-3.4781-30.651-5.1439-46.326s-3.3574-30.201-3.759-32.28l-0.73-3.8-8.5 10.3c-22.005 26.605-21.191 25.276-18.137 29.628 1.0244 1.4599 4.0052 6.4794 6.624 11.154 2.6188 4.675 7.9207 13.9 11.782 20.5 21.829 37.312 20.944 36.775 17.865 10.826zm259.87-111.3c3.025-0.4527 10.562-1.5459 16.749-2.4293 6.1872-0.8833 14.287-2.27 18-3.0813 18.152-3.967 25.063-5.6323 28.74-6.9255 2.2057-0.7758 8.0604-2.6347 13.01-4.1311 205.51-62.125 231.12-298.86 40.329-372.93-28.849-11.199-74.836-16.73-104.64-12.585-3.6804 0.5119-10.967 1.4606-16.192 2.1081-11.452 1.4193-24.795 4.7349-39.175 9.735l-10.675 3.7117-0.61329 9.5073c-0.3373 5.2289-1.5533 20.532-2.7022 34.007-3.5217 41.303-0.13572 75.918 7.4356 76.016 12.962 0.1669 48.169 5.6401 51.23 7.9642 0.55 0.4177 2.8 1.3359 5 2.0406 28.285 9.0601 41.433 29.203 41.483 63.548 0.0468 32.545-23.433 58.556-73.483 81.405-3.85 1.7576-8.8296 4.0577-11.066 5.1112-2.2362 1.0536-4.3983 1.9156-4.8049 1.9156-0.40653 0-2.627 0.8538-4.9343 1.8974-2.3073 1.0435-6.1076 2.4647-8.4451 3.1582-2.3375 0.6936-4.25 1.5675-4.25 1.9422 0 1.4615 21.559 9.7384 27.5 10.558 0.55 0.076 1.8926 0.5204 2.9836 0.9879 2.6506 1.1358 14.505 1.1663 17.016 0.044 1.1-0.4916 2.45-0.9474 3-1.013 2.3144-0.2759 12.447-3.6657 15.112-5.0559 5.9071-3.0807 6.5065-2.1063 2.703 4.3939-11.323 19.351-32.353 35.117-58.065 43.531-5.2693 1.7243-6.6255 3.8973-4.4847 7.1857 1.5169 2.3301 50.235 2.6729 50.235 0.3535 0-0.32 2.6411-1.1274 5.869-1.7941 10.306-2.1286 30.033-13.268 39.866-22.51 4.2006-3.9485 4.9-3.0133 3.5669 4.7693-3.6048 21.045-20.067 36.535-52.161 49.082-7.3907 2.8894-8.8452 4.1928-7.7791 6.9711 0.64491 1.6806 4.7758 1.8345 13.638 0.5081zm141.38-183.5c-12.837-18.127-27.626-64.113-36.319-112.93-1.4082-7.9087-1.5121-7.5663 2.2956-7.5663 17.298 0 39.11 70.253 36.482 117.5l-0.33381 6-2.1245-3zm38.19-23.634c-0.29185-1.3013-1.2495-6.416-2.1281-11.366-2.9235-16.472-10.484-42.807-16.999-59.212-8.8628-22.317-8.6318-29.288 0.97047-29.288 15.54 0 26.518 34.514 26.581 83.569 0.0114 8.9511-7.0204 22.555-8.424 16.297zm-214.07 60.1c79.472-25.036 72.281-95.846-9.75-96.009h-8.75v50.411 50.411l6.25-1.4533c3.4375-0.7993 8.95-2.3038 12.25-3.3434zm-215.7-167.2c0.8768-0.8768 1.2-8.8222 1.2-29.5v-28.3h-11.5c-7.769 0-11.5 0.3606-11.5 1.1115 0 0.8156 13.457 42 18.506 56.638 0.5435 1.5756 1.75 1.5939 3.294 0.05zm1539.7-735.4c-5.5-2.5077-16.3-7.4973-24-11.088-21.077-9.829-24.414-11.374-45-20.83-10.45-4.8003-23.05-10.628-28-12.951-4.95-2.3228-21.375-9.9283-36.5-16.901s-30.875-14.354-35-16.404l-7.5-3.726-0.6789-6.5c-0.3735-3.575-4.5477-42.275-9.2762-86-20.017-185.11-24.468-227.31-24.043-228 0.2473-0.40001 1.923-0.99265 3.7238-1.317 1.8009-0.32433 8.2243-1.4743 14.274-2.5554 6.05-1.0812 23.6-4.2689 39-7.0839s32.95-6.0212 39-7.1248c6.05-1.1037 12.169-2.232 13.598-2.5073 2.1304-0.41049 2.8725-1.4377 4.121-5.7045 0.8375-2.8621 5.6924-19.379 10.789-36.704 5.0962-17.325 13.038-44.325 17.648-60 4.6105-15.675 11.478-39.075 15.262-52 3.7836-12.925 10.99-37.45 16.015-54.5 9.2847-31.506 21.898-74.447 34.072-116 3.7064-12.65 11.598-39.425 17.537-59.5 12.869-43.501 13.13-31.697-1.8578-84-20.861-72.798-23.953-84.063-23.277-84.795 0.3579-0.38762 24.12-12.405 52.804-26.705l52.153-26 6.407-18.5c13.084-37.779 19.265-55.243 20.049-56.644 0.6393-1.1423 2.1369-0.42279 7.2425 3.4797 5.7596 4.4023 92.483 69.217 153.62 114.81l23.188 17.293-3.0085 11.279c-1.6547 6.2032-4.8086 17.804-7.0088 25.779s-7.1426 26.2-10.983 40.5c-3.8406 14.3-7.8376 28.925-8.8823 32.5s-5.0519 18.287-8.905 32.693l-7.0057 26.193 30.003 74.307c16.501 40.869 33.114 81.957 36.917 91.307s22.641 55.925 41.862 103.5l34.948 86.5 40.93 0.26096 40.93 0.26096-0.3734 10.239c-0.5545 15.206-4.2901 153.29-4.9435 182.74l-0.5658 25.5 7.1783 34c3.9481 18.7 7.8054 36.693 8.5719 39.984 1.6424 7.0527 2.6536 5.8603-11.038 13.015-6.05 3.1614-17.525 9.2263-25.5 13.478-7.975 4.2513-19.225 10.211-25 13.244-25.81 13.555-33.832 17.792-54.5 28.786-12.1 6.436-28.3 14.981-36 18.988-7.7 4.0075-14.522 7.695-15.161 8.1944-1.4733 1.1524 0.1777 4.3559-16.847-32.689-13.543-29.468-20.084-43.739-38.273-83.5-3.6482-7.975-6.7696-14.692-6.9365-14.927-0.1668-0.23491-5.8112 0.60481-12.543 1.866s-16.74 3.1392-22.24 4.1733c-62.344 11.722-120.63 19.343-151.42 19.798-6.8317 0.10091-12.784 0.40781-13.228 0.68199-0.8281 0.5118-7.8202 21.821-28.681 87.408-14.772 46.443-25.353 76.981-26.67 76.969-0.55-0.01-5.5-2.0611-11-4.5687zm-4.5973-63.341c1.7377-6.5673 5.2032-18.83 7.7012-27.25 2.498-8.4201 7.6075-25.659 11.354-38.309 6.4986-21.94 10.382-34.77 22.097-73 2.865-9.35 8.4623-27.8 12.438-41 3.9762-13.2 11.173-36.825 15.993-52.5 4.8201-15.675 12.694-41.325 17.497-57 4.8031-15.675 12.686-41.325 17.518-57 4.8319-15.675 12.03-39.075 15.996-52 3.9662-12.925 11.159-36.325 15.984-52 4.8249-15.675 12.28-40.037 16.568-54.138 4.2873-14.101 8.5401-27.826 9.4506-30.5 0.9104-2.674 5.2115-16.562 9.5579-30.862s11.443-37.475 15.771-51.5c12.182-39.481 23.402-75.897 32.656-106 4.6501-15.125 12.336-40.1 17.08-55.5 20.25-65.739 26.435-86.838 26.435-90.187 0-12.514-6.2053-37.101-10.912-43.237l-1.8597-2.4246-7.5615 4.7129c-16.652 10.378-40.306 32.288-56.624 52.449-8.8158 10.891-9.2739 11.075-7.3121 2.9376 6.6967-27.779 12.585-43.772 25.239-68.548l7.8132-15.298-2.6412-1.6119c-1.4526-0.88653-4.2161-2.5998-6.1411-3.8072-33.125-20.778-28.605-19.85-35.268-7.2343-2.9774 5.6375-9.8191 18.35-15.204 28.25-5.3847 9.9-12.952 23.85-16.816 31-3.8639 7.15-8.9723 16.6-11.352 21s-4.327 7.775-4.3275 7.5c0-1.0034 24.894-73.989 30.968-90.79 3.4383-9.5097 6.0822-17.435 5.8753-17.613-2-1.727-17.1-11.635-17.7-11.635-0.43 0-2.6525 5.5125-4.9389 12.25-4.9258 14.515-18.076 51.916-22.238 63.25-1.616 4.4-8.652 24.875-15.636 45.5-6.9835 20.625-14.615 43.125-16.959 50-3.9795 11.672-23.187 70.473-32.991 101-2.3848 7.425-6.6469 21.375-9.4714 31s-6.8847 23.125-9.0226 30c-3.3565 10.794-9.1673 31.106-21.107 73.784-1.5825 5.6561-5.0759 18.481-7.7633 28.5-2.6873 10.019-8.5025 30.816-12.922 46.216-4.4201 15.4-11.005 38.35-14.633 51-3.6282 12.65-8.3602 28.85-10.515 36-2.1552 7.15-6.2256 21.325-9.0454 31.5-2.8197 10.175-6.2011 21.875-7.514 26-1.313 4.125-6.053 20.325-10.533 36-12.175 42.598-22.655 79.012-32.376 112.5-13.206 45.493-24.971 86.314-32.712 113.5-3.8369 13.475-7.8486 27.162-8.9149 30.415-2.6276 8.0174-2.5492 8.3445 2.3114 9.6441 2.3375 0.62497 4.7 1.4618 5.25 1.8595 1.4079 1.0182 20.458 6.4582 20.931 5.9771 0.5056-0.5142 24.408-59 45.731-111.9 3.8799-9.625 7.479-18.175 7.998-19 1.6389-2.6054 0.2203 78.35-1.656 94.5-1.3642 11.741-4.7525 33.721-6.9547 45.114-0.5051 2.6131 7.7655-13.691 42.108-83.01 8.1233-16.397 11.344-22.051 11.344-19.92 0 5.9316-8.8709 108.87-11.489 133.32-0.5904 5.5125-0.8638 5.1229 9.3386 13.304 10.818 8.6749 10.32 8.8606 14.053-5.2449zm-16.606-224.69c-14.929-14.99-4.6321-47.164 10.977-34.298 6.4895 5.3492 8.9252 10.724 8.835 19.495-0.1833 17.83-9.7092 24.948-19.812 14.804zm161.28-533.55c-10.325-5.9924-11.468-26.724-1.696-30.772 3.9022-1.6164 5.9181-0.86618 10.625 3.9539 10.141 10.385 2.4679 33.432-8.9287 26.818zm227.37 684.04c-1.6363-4.4378-5.8741-15.109-9.4174-23.715-3.5433-8.6052-8.9572-21.946-12.031-29.646s-6.4782-16.178-7.5654-18.84c-2.7475-6.7277-8.0415-10.168 46.192 30.02 15.402 11.413 18.864 13.535 18.88 11.571 0-0.4125-1.1829-7.7269-2.6362-16.254-2.2868-13.419-2.5422-16.971-1.8989-26.41l0.7434-10.906 3.6488 6.9102c8.9314 16.915 22.989 34.946 34.488 44.237 7.8754 6.3628 7.2064 6.6595 14.143-6.2727l5.5626-10.37-7.1274-19.342c-11.6-31.64-23.2-62.82-32.9-88.88-9.1968-24.623-18.008-48.314-33.472-90-11.132-30.009-23.571-63.453-34.031-91.5-4.7179-12.65-12.336-33.125-16.928-45.5-4.5927-12.375-12.043-32.4-16.557-44.5-4.5136-12.1-11.713-31.45-15.999-43-17.486-47.123-25.317-68.189-34.014-91.5-5.0271-13.475-11.616-31.247-14.642-39.494-6.4884-17.682-5.82-16.677-7.8871-11.864-13.392 31.18-36.942 99.471-44.435 128.86-14.45 56.664-15.328 76.385-5.4889 123.2 6.7527 32.129 10.827 47.156 24.482 90.3 14.71 46.478 40.591 113.34 59.027 152.5 2.8484 6.05 6.5095 13.891 8.1357 17.425 24.986 54.295 61.512 105.29 79.216 110.6 5.7663 1.7299 5.8854 1.372 2.5522-7.6681zm-37.5-163.8c-14.002-6.1176-15.474-33.829-2.1493-40.451l3.7217-1.8496 5.5148 2.6981c19.311 9.4482 12.392 48.114-7.0872 39.603zm-198 97.309c9.9-0.84294 20.925-1.9645 24.5-2.4922 3.575-0.52779 13.025-1.8511 21-2.9408 7.975-1.0896 15.625-2.395 17-2.9009 1.375-0.50585 4.75-1.191 7.5-1.5226 6.5321-0.78765 10.981-1.5131 16.5-2.6904 2.475-0.52798 8.8948-1.8224 14.266-2.8765 5.3714-1.0541 11.559-2.4536 13.75-3.1101l3.9837-1.1936v-13.842c0-12.66-0.2-13.84-1.8-13.84-0.99 0-2.2275-0.38394-2.75-0.85321-0.5225-0.46926-5.675-1.6241-11.45-2.5663-5.775-0.94222-11.4-2.1312-12.5-2.6422-1.1-0.51097-6.275-1.7968-11.5-2.8575-15.57-3.1606-49.378-12.142-52.998-14.08-2.348-1.2566 15.314-6.9068 21.807-6.9762 1.27-0.0136 2.0341-0.46952 1.6981-1.0132-0.3514-0.56859 0.054-0.73347 0.9537-0.38812 0.8606 0.33023 2.1214 0.15096 2.8019-0.39839s3.2623-1.3186 5.7373-1.7096c6.6907-1.0568 36.368-8.6316 37.349-9.5331 0.8617-0.79169-6.7301-7.2799-13.642-11.659-7.7002-4.8784-24.526-12.869-35.516-16.866-12.097-4.3997-12.485-5.0159-4.6902-7.4415 12.577-3.9137 23.5-16.509 23.5-27.1 0-3.3627-5.7803-7.2453-14.3-9.6049-2.8603-0.79222-6.1005-1.8346-7.2005-2.3165-4.4326-1.9417-13.712-3.2216-27.002-3.7243l-14.002-0.52967-1.3774 3.8795c-0.7576 2.1337-3.6154 9.5045-6.3506 16.379-5.3043 13.332-18.336 50.248-22.417 63.5-7.6416 24.816-23.35 83.546-23.35 87.3 0 1.781 19.599 1.2419 50.5-1.3892zm-282.7-44.91c2.7504-10.45 7.042-26.425 9.5369-35.5 18.465-67.163 22.065-80.929 21.353-81.641-0.3496-0.34962-3.011-0.11422-5.9142 0.52312s-9.5535 1.8178-14.778 2.6234c-5.225 0.8055-12.875 2.0337-17 2.7294l-7.5 1.2648v8.5c0 4.675 0.346 13.751 0.7688 20.169 1.1924 18.097 3.5462 52.197 5.1998 75.331 0.8256 11.55 1.5216 22.575 1.5466 24.5 0.073 5.6283 1.3604 2.1203 6.7875-18.5zm608.86-24.21c0.2232-6.4844 1.0512-27.99 1.84-47.79s1.7401-46.238 2.1141-58.75l0.68-22.75h-20.542-20.542l2.4454 9.25c3.1974 12.095 17.55 69.875 26.068 104.94 3.6995 15.23 6.9072 27.511 7.1282 27.29 0.221-0.22097 0.5844-5.7072 0.8076-12.192zm-270.2-131.54c-0.2253-0.6875-5.6627-19.7-12.083-42.25-6.4204-22.55-11.796-41.137-11.947-41.304-0.1502-0.16731-0.9642 1.6327-1.8089 4s-6.5203 17.797-12.612 34.287c-6.0922 16.491-11.077 30.286-11.077 30.657 0 0.37071 5.7375 2.4857 12.75 4.7s17.7 5.5916 23.75 7.5052c12.456 3.9398 13.6 4.1509 13.028 2.405zm-136-496.75c11.892-31.247 19.679-51.49 24.394-63.416 5.6973-14.411 5.4428-13.584 4.1813-13.584-0.7458 0-26.526 11.122-40.726 17.569-1.7332 0.78694-3.4073 1.4308-3.7204 1.4308-1.3302 0-11.628 5.1222-11.618 5.7793 0.012 0.84021 13.285 42.203 18.117 56.457 1.8153 5.355 3.5963 9.405 3.9578 9 0.3616-0.40505 2.7982-6.3614 5.4148-13.236zm2402 885.2c-13.791-10.818-25.874-20.189-86.605-67.167-11.732-9.075-34.845-26.97-51.363-39.766s-34.195-26.483-39.282-30.414c-11.175-8.6356-13.43 1.9482 14.357-67.401 12.984-32.405 26.19-65.443 29.346-73.418 3.1564-7.975 16.608-41.614 29.893-74.754 28.64-71.445 27.518-57.226 6.8565-86.902-25.6-36.76-30.6-44.04-137.7-198.39-13.9-20.08-28-40.32-31.2-45-27.8-39.85-44.8-64.53-44.8-65.16 0-0.41139 5.5125-9.0864 12.25-19.278 18.966-28.689 38.917-58.995 71.466-108.56 69.644-106.06 85.513-130 86.131-129.95 0.3594 0.02499 3.8239 4.6375 7.6989 10.25s27.246 38.78 51.935 73.705c77.651 109.84 126.71 179.24 131.95 186.68 3.103 4.3968 5.325 6.7163 5.7341 5.9856 0.3673-0.6562 3.4499-7.9366 6.8503-16.179 3.4003-8.2421 8.8084-21.286 12.018-28.986s18.287-44.15 33.505-81 31.394-76 35.946-87c7.0541-17.046 21.519-52.128 26.125-63.359 1.7746-4.3277-1.8165-6.3025 42.027 23.111 20.824 13.97 72.061 48.27 113.86 76.222 41.8 27.952 76.151 50.944 76.336 51.093 0.1851 0.14948-1.4485 4.2454-3.6302 9.102-8.8825 19.773-41.866 93.707-47.213 105.83-5.248 11.898-14.406 32.451-63.494 142.5-9.2 20.625-23.149 51.9-30.998 69.5-7.8487 17.6-21.696 48.65-30.771 69-9.0756 20.35-29.328 65.8-45.006 101-26.686 59.915-35.532 79.753-72.464 162.5-7.9782 17.875-18.086 40.6-22.462 50.5-4.3757 9.9-8.5823 19.35-9.348 21-1.8356 3.9553-16.907 37.733-41.163 92.25-10.828 24.338-20.16 44.235-20.737 44.217-0.5774-0.018-7.7999-5.328-16.05-11.8zm15.211-61.917c10.417-22.876 22.676-49.61 34.277-74.75 5.0763-11 12.505-27.2 16.508-36 4.0032-8.8 11.875-25.9 17.492-38 5.6176-12.1 12.237-26.5 14.709-32 2.4724-5.5 6.3186-13.825 8.5472-18.5s6.406-13.675 9.2832-20c5.9302-13.036 20.89-45.613 47.99-104.5 23.251-50.525 27.227-59.177 34.467-75 4.2779-9.35 11.929-26 17.003-37 5.0739-11 12.731-27.65 17.016-37 4.2848-9.35 11.828-25.775 16.763-36.5 33.201-72.156 42.373-92.116 48.71-106 2.8865-6.325 7.1555-15.55 9.4865-20.5s5.9437-12.825 8.0281-17.5c2.0845-4.675 5.828-12.813 8.319-18.084 2.4909-5.2715 7.3219-15.846 10.736-23.5 3.4136-7.6535 6.5433-14.366 6.9549-14.916s3.4843-7.1348 6.8283-14.633c3.3439-7.498 7.9495-17.623 10.234-22.5 7.8992-16.859 13.984-30.654 13.663-30.975-0.1772-0.17725-3.8929-1.9495-8.2571-3.9383s-10.199-4.6872-12.967-5.9965c-2.7675-1.3092-6.9432-3.0548-9.2794-3.8791l-4.2477-1.4987-2.6619 4.2101c-3.2983 5.2165-18.234 29.325-27.719 44.741-3.9017 6.342-15.194 24.662-25.094 40.711s-19.005 30.885-20.234 32.969c-3.7958 6.4388-4.1442 7.4284 20.319-57.711 4.0278-10.725 9.8373-26.25 12.91-34.5 3.0726-8.25 8.0432-21.325 11.046-29.055 3.0024-7.7303 5.4589-14.565 5.4589-15.188 0-0.87702-16.701-13.272-23.56-17.485-0.7489-0.46008-2.5142 1.1978-4.7912 4.5-23.601 34.226-83.973 119.74-84.303 119.41-0.2022-0.20216 1.589-5.9502 3.9804-12.773 4.1635-11.88 11.634-33.151 29.996-85.406 4.6382-13.2 11.204-31.861 14.591-41.469l6.1574-17.469-2.2851-1.7919c-1.2567-0.98554-5.435-3.6094-9.285-5.8308s-16.675-10.03-28.5-17.351c-11.825-7.3219-21.779-13.037-22.12-12.7-0.646 0.63804-7.5885 16.954-45.364 106.61-16.526 39.224-25.511 60.49-31.264 74-3.0447 7.15-8.3556 19.75-11.802 28-8.5284 20.415-20.521 48.866-30.982 73.5-4.7877 11.275-11.959 28.375-15.937 38-3.9777 9.625-8.4717 20.2-9.9867 23.5-1.5151 3.3-4.0887 9.375-5.7191 13.5-1.6305 4.125-6.0509 14.7-9.8231 23.5-9.6653 22.548-20.22 47.469-27.529 65-7.97 19.116-19.859 47.358-30.942 73.5-4.7801 11.275-12.51 29.699-17.178 40.942-4.6678 11.243-8.9714 21.347-9.5635 22.453-0.5921 1.1063-4.35 9.9075-8.3508 19.558-4.0008 9.6507-11.076 26.547-15.722 37.547-4.6465 11-11.448 27.2-15.116 36-3.667 8.8-8.1933 19.375-10.058 23.5-1.8651 4.125-5.9446 13.8-9.0654 21.5s-6.5933 16.025-7.7166 18.5-5.3148 12.375-9.3144 22-8.4416 20.113-9.871 23.307l-2.5989 5.8066 10.231 10.693c5.6269 5.8814 10.512 10.82 10.857 10.975 0.6818 0.30652 4.6979-6.6039 34.453-59.281 10.873-19.25 23.588-41.75 28.254-50s11.658-20.625 15.537-27.5c13.379-23.709 13.83-24.329 8.6257-11.854-1.6873 4.0445-6.8191 17.029-11.404 28.854-4.5851 11.825-11.924 30.725-16.308 42-4.3843 11.275-11.643 29.95-16.131 41.5-4.4877 11.55-8.7828 22.35-9.5445 24-2.2146 4.7969-11.545 30.04-11.545 31.235 0 1.6468 14.158 13.518 15.005 12.581 0.4056-0.44894 7.2063-9.5912 15.113-20.316 7.9062-10.725 17.752-24.059 21.879-29.631 4.127-5.5721 14.011-18.94 21.965-29.706 7.9537-10.766 14.598-19.437 14.766-19.27 0.1677 0.16771-1.9951 5.6602-4.8063 12.206-2.8113 6.5453-8.1698 19.101-11.908 27.901s-7.8016 18.25-9.0298 21c-2.4619 5.512-14.74 34.138-21.601 50.362-2.4101 5.699-4.382 10.731-4.382 11.183 0 0.76803 23.626 16.824 39.645 26.943 3.9297 2.4821 12.03 7.7677 18 11.746 5.9704 3.9779 11.109 7.2404 11.42 7.25 0.3104 0.01 4.2014-7.9702 8.6467-17.733zm52.633-410.49c-2.1141-2.8843-4.3749-5.953-5.0239-6.8193-0.9739-1.2998-0.2503-2.7419 4.1406-8.2517l5.3208-6.6767 5.5185 6.8301 5.5185 6.8301-5.1592 6.6218c-6.226 7.9912-5.5977 7.9019-10.315 1.4656zm-120.8-6.81c6.4013-14.897 21.652-49.208 34.448-77.5 3.9799-8.8 10.965-24.325 15.522-34.5 4.5574-10.175 12.879-28.625 18.492-41 5.6132-12.375 13.024-28.8 16.468-36.5 3.4445-7.7 7.0497-15.622 8.0116-17.604l1.749-3.6036-5.8012-7.8964c-8.7266-11.878-17.612-23.946-32.49-44.127-7.3919-10.027-14.565-19.764-15.94-21.639-1.375-1.8746-5.875-7.9912-10-13.592-11.154-15.146-19.166-26.064-32.443-44.213-12.58-17.195-27.377-37.283-38.544-52.325-3.6749-4.95-14.465-19.575-23.977-32.5-9.5126-12.925-17.451-23.677-17.641-23.892-1.0033-1.1389-25.394 31.476-25.394 33.957 0 0.54506 16.228 33.198 36.063 72.562s35.586 71.276 35.003 70.915c-0.5834-0.36056-6.0994-6.8172-12.258-14.348-6.1584-7.5309-16.847-20.458-23.753-28.726-6.9055-8.2685-21.989-26.381-33.519-40.25-11.4-13.87-21.1-25.22-21.4-25.22-0.7359 0-19.752 25.21-20.448 27.109-0.5189 1.4151 0.6451 3.4112 26.888 46.11 8.2076 13.354 19.06 31.031 24.116 39.281 5.0564 8.25 14.039 22.875 19.96 32.5 12.133 19.72 15.439 25.415 13.11 22.581-0.8677-1.0557-5.9722-6.464-11.343-12.018-5.3713-5.5544-20.331-21.116-33.244-34.581-22.261-23.213-33.794-35.233-52.996-55.232-10.328-10.757-9.2826-10.885-16.621 2.0265-3.3524 5.8979-10.439 18.1-15.747 27.116l-9.652 16.393 5.3627 8.1071c2.9494 4.4589 12.92 19.582 22.157 33.607 38.731 58.808 99.5 150.84 147.79 223.81l18.074 27.313 1.9588-3.8133c1-2.09 4.7-10.33 8.1-18.31zm-3265 448.2c-0.27-0.3-0.49-70.93-0.49-156.97v-156.44l-7.75 0.58379c-4.2625 0.32108-12.25 0.70542-17.75 0.85408l-10 0.27029-0.71775-9.5c-0.39476-5.225-2.0778-32-3.7401-59.5-2.7806-46.002-5.6341-92.734-9.4947-155.5-0.82882-13.475-1.7734-26.862-2.0992-29.75l-0.59221-5.25h19.73 19.73l5.1241-3.9532c9.1651-7.0708 9.2441-7.226 9.9474-19.547 0.34535-6.05 1.5183-27.2 2.6066-47s2.2186-39.375 2.5119-43.5c0.29325-4.125 1.4198-24.15 2.5035-44.5s2.4278-44.2 2.9868-53c1.3503-21.254 5.5207-92.806 8.471-145.34 2.8271-50.338-2.396-43.952 33.796-41.321 16.631 1.2091 37.438 2.6454 46.238 3.1917 8.8 0.54628 18.025 1.1838 20.5 1.4166 10.095 0.94991 18.06 1.5389 28.5 2.1076 6.05 0.32958 16.175 1.0144 22.5 1.5217 6.325 0.50737 18.475 1.3853 27 1.951 8.525 0.56567 21.078 1.4656 27.895 1.9998 6.8174 0.53421 13.68 0.97129 15.25 0.97129h2.8548v181.5 181.5h49.928 49.928l0.5416-5.25c0.2978-2.8875 0.8022-10.875 1.1209-17.75s0.7595-14.75 0.9797-17.5 0.6606-10.175 0.9787-16.5c0.6105-12.139 4.12-73.563 5.028-88 0.294-4.675 1.4225-25.375 2.5079-46 1.0853-20.625 2.1933-40.425 2.4623-44 0.2689-3.575 1.4072-24.725 2.5295-47s2.288-42.865 2.5905-45.755l0.5499-5.2547 103.18 0.25466 103.18 0.25466 0.2528 174.75 0.2528 174.75h13.452 13.452l0.4999 3.25c0.275 1.7875 0.7608 10.225 1.0795 18.75 0.3188 8.525 0.7926 18.875 1.0531 23 0.5395 8.5462 1.6012 29.165 4.4799 87 5.1444 103.36 6.9859 143.33 6.6204 143.69-0.4848 0.48472-40.788 18.04-52.892 23.039l-8.75 3.6136v120.62 120.62l-28.75 2.7872c-15.812 1.533-35.275 3.4037-43.25 4.1573-24.894 2.3521-26.423 2.5076-29.5 2.9999-1.65 0.264-11.1 1.1498-21 1.9684s-22.05 1.9494-27 2.5128c-4.95 0.5635-18.675 1.9179-30.5 3.0097-11.825 1.0919-23.638 2.2493-26.25 2.5722l-4.75 0.587v-137.59-137.59h-2.5344c-2.0736 0-70.53 8.8989-80.966 10.525-1.65 0.2571-7.4001 1.0033-12.778 1.6583-8.5705 1.0438-9.8316 1.4456-10.213 3.2538-0.23928 1.1346-3.6419 40.538-7.5613 87.563s-7.793 93.15-8.6079 102.5c-0.81492 9.35-2.2373 26-3.1608 37l-1.6791 20-6 0.6693c-3.3 0.368-15.9 1.8417-28 3.2747-12.1 1.4331-27.625 3.2586-34.5 4.0567-6.875 0.7982-29.375 3.4868-50 5.9748s-47.175 5.6798-59 7.0929-24.317 2.9085-27.761 3.323c-3.4434 0.4145-6.4809 0.5335-6.75 0.2645zm42.784-51.303c12.912-1.5918 11.494 3.6018 15.32-56.103 1.8416-28.737 3.4739-53.136 3.6273-54.22 0.3427-2.4209 7.0087 27.264 13.804 61.47 6.3674 32.054 5.3487 29.708 13.164 30.31 3.4714 0.26745 8.5616 0.92784 11.312 1.4675 2.75 0.5397 8.4188 1.2925 12.597 1.6728l7.5973 0.69151 0.66593-7.821c0.73668-8.6521 8.5929-120.01 8.7185-123.58 0.23001-6.537 4.223 26.151 11.453 93.755 3.0789 28.79-0.36388 25.351 26.175 26.149l22.124 0.66526 0.54312-4.4066c0.29872-2.4236 1.0212-15.882 1.6055-29.907 3.551-85.234 5.0207-119.71 5.4999-129 0.29774-5.775 1.2134-28.05 2.0347-49.5 0.82138-21.45 1.9324-48.45 2.469-60 0.53656-11.55 1.438-36.525 2.0031-55.5 0.56515-18.975 1.2516-40.125 1.5253-47 3.0561-76.74 6.4663-279.68 6.4802-385.65l0.009-66.146-8.75-1.5719c-4.8125-0.86453-11.123-1.8706-14.022-2.2357-2.8998-0.3651-5.5139-1.0545-5.809-1.532-0.3-0.51-1.38-0.9-2.42-0.9-2.2634 0-1.5994-4.3611-8.0696 53-5.476 48.547-6.2368 53.338-7.3035 46-0.6694-4.6048-7.5269-67.719-9.7492-89.728-1.4619-14.478-1.2054-13.928-6.8867-14.763-2.4713-0.36335-8.2677-1.3145-12.881-2.1137-10.041-1.7395-9.0745-2.5283-10.816 8.829-0.78209 5.1019-3.0119 18.951-4.9551 30.776s-5.9034 36.575-8.8004 55c-6.1222 38.938-5.8241 39.178-8.0572-6.5-0.8873-18.15-1.8256-35.025-2.085-37.5-0.25948-2.475-1.0646-15.422-1.7892-28.77-1.5761-29.037 5.0307-24.04-43.966-33.251-7.6176-1.4321-6.9117-4.2349-7.7543 30.79-0.40659 16.902-0.99767 39.731-1.3135 50.731-0.31585 11-2.1312 85.7-4.0341 166s-3.7106 153.65-4.017 163c-0.30644 9.35-1.435 54.125-2.508 99.5-1.0729 45.375-2.1984 87.675-2.5011 94-0.30265 6.325-0.98743 29.95-1.5217 52.5-1.3927 58.777-1.9712 81.165-2.4935 96.5-0.25292 7.425-0.92906 36.45-1.5025 64.5-0.57347 28.05-1.1758 53.613-1.3386 56.807l-0.29594 5.8072 3.568-0.5282c1.9624-0.2905 7.966-1.0704 13.342-1.7331zm63.94-386.19c-2.32-2.36-4.21-4.63-4.21-5.04 0-1.15 8.13-11.67 9.02-11.67 1.525 0 11.316 12.174 10.322 12.835-0.55052 0.36599-3.0368 2.3529-5.5252 4.4154-5.5003 4.559-4.556 4.6118-9.6101-0.53785zm371.29 368.11c0.55-0.33778 3.925-0.93047 7.5-1.3171 3.575-0.38662 9.875-1.354 14-2.1498s12.242-2.2401 18.039-3.2095c5.7964-0.96945 11.084-2.0995 11.75-2.5112 0.9451-0.58406 1.2112-90.505 1.2112-409.21v-408.46l-20.233 0.2707-20.234 0.27071-3.1854 22c-1.752 12.1-5.129 37.075-7.5044 55.5l-4.3189 33.5-1.175-8c-2.4589-16.741-8.4229-60.826-10.89-80.5-1.4141-11.275-2.7618-21.076-2.9948-21.779-0.3221-0.97247-3.6054-1.2122-13.694-1l-13.2 0.28-0.2977 58-0.2977 58-6.7023-20.576c-15.609-47.918-31.741-95.898-32.248-95.911-0.3-0.008-1.3215 34.299-2.2699 76.236-3.8718 171.21-5.6006 242.89-6.1436 254.75-0.3149 6.875-1.2299 42.65-2.0334 79.5s-1.7034 74.65-1.9997 84c-1.2096 38.171-7.4933 324.85-7.1284 325.21 0.2168 0.21678 1.6168-6.2674 3.1112-14.409 1.4944-8.1419 4.4478-23.578 6.563-34.303s7.0255-36.375 10.912-57c3.8862-20.625 7.6622-39.975 8.3913-43l1.3255-5.5 0.6758 3.5c0.3716 1.925 3.3757 26 6.6758 53.5 3.3 27.5 6.8631 56.075 7.9181 63.5s2.7036 20.471 3.6636 28.991c2.1434 19.023 2.0963 19.16 7.419-21.491 3.8321-29.266 6.8103-49.678 7.3232-50.191 0.1261-0.12615 1.6957 9.0902 3.4878 20.481 6.7873 43.139 10.271 63.779 11.106 65.804l0.8634 2.0934 11.843-2.1273c6.5135-1.17 12.293-2.4036 12.843-2.7414zm-22.5-364.08c-2.475-3.9522-4.6307-7.4781-4.7904-7.8353-1.4922-3.3378 9.2399-2.7048 13.804 0.81415 5.984 4.6135 5.966 3.8891 0.2362 9.5304l-4.75 4.6766-4.5-7.1858zm-189.5 104.37c9.35-1.1345 18.575-2.5029 20.5-3.041 1.925-0.53804 6.425-1.2467 10-1.5749 13.73-1.2603 16.728-1.6321 24-2.9768 4.125-0.76274 10.994-1.6946 15.264-2.0708 6.0766-0.53533 12.279-2.4463 7.9393-2.4463-0.5028 0-12.342-6.3479-26.309-14.106-13.967-7.7585-28.848-15.846-33.069-17.973-7.6103-3.8345-9.5686-5.3474-8.0919-6.2514 0.6272-0.38398 17.61-1.9175 21.972-1.984 0.6633-0.0101 1.0097-0.33607 0.7697-0.72435s4.5746-1.0307 10.699-1.4277c6.1245-0.39694 12.078-0.86595 13.23-1.0422 1.1523-0.17629 5.245-0.6084 9.095-0.96025 3.85-0.35184 8.4625-0.89024 10.25-1.1964l3.25-0.5567v-37.749-37.749l-6.7782-2.1392c-3.728-1.1766-7.2905-2.1392-7.9167-2.1392-0.6261 0-1.2884-0.3375-1.4718-0.75-0.1833-0.4125-7.3083-3.1453-15.833-6.073-33.017-11.339-39.006-13.569-38.266-14.251 0.4212-0.38793 5.4908-1.6832 11.266-2.8784 5.775-1.1952 11.4-2.5464 12.5-3.0028 1.1-0.45635 6.275-1.7885 11.5-2.9603s12.425-2.7857 16-3.5863c3.575-0.80066 9.3125-2.2071 12.75-3.1255l6.25-1.6698v-25.419c0-23.732-0.1161-25.386-1.75-24.919-2.2036 0.62923-25.87 2.253-60.75 4.1681-14.85 0.81533-30.488 1.7621-34.75 2.1038l-7.75 0.62142v111.47 111.47l4.25-0.51448c2.3375-0.28296 11.9-1.4427 21.25-2.5772zm299.19-7.5338c3.744-1.3332 9.4376-3.2083 12.653-4.1669 7.2331-2.1566 8.159-16.593 4.1309-64.409-0.2085-2.475-0.6403-10.575-0.9596-18-4.4024-102.38-3.3556-95-13.47-95h-7.8357l-0.5825 15.25c-0.3204 8.3875-0.8292 29.875-1.1306 47.75-0.3015 17.875-0.752 40.6-1.0012 50.5-1.7332 68.85-1.7364 70.5-0.1382 70.5 0.8401 0 4.5907-1.0908 8.3347-2.4241zm-576.44-13.18c5.6339-0.88182 10.806-1.6318 11.493-1.6667 0.6875-0.0349 1.25-0.43835 1.25-0.89669 0-0.46 0.9-0.84 2-0.84 2.0883 0 3.2682-179.46 1.2013-182.71-0.43176-0.67934-4.366-1.5086-8.9847-1.8938-4.52-0.38-8.22-1-8.22-1.38 0-0.37926-0.5625-0.71828-1.25-0.75339-0.6875-0.0351-3.7536-0.3872-6.8135-0.78243l-5.5635-0.7186 0.3 8.8658c0.16501 4.8762 0.75454 38.116 1.3101 73.866 1.0972 70.608 2.0542 110.5 2.6508 110.5 0.20864 0 4.9889-0.72149 10.623-1.6033zm1522.4 294.8c8.5856-205.18-12.596-411.06-52.317-508.52-2.5167-6.1748-4.6484-12.023-4.737-12.995-0.1226-1.3441 6.0761-5.0898 25.839-15.614l26-13.845 0.6255-6.8863c0.5762-6.3434 2.7764-48.616 3.1946-61.377l0.1799-5.4908-6-0.64951c-7.8765-0.85265-17.036-1.5375-39.5-2.9534-10.175-0.64131-18.833-1.4655-19.241-1.8315-0.6376-0.57288-5.4574-37.681-12.74-98.084-4.8746-40.433-17.008-139.81-17.429-142.75-0.2559-1.7875-0.2356-3.25 0.045-3.25s9.8148-1.8157 21.187-4.0348c11.372-2.2192 27.652-5.3704 36.177-7.0028s20.9-4.0088 27.5-5.281l12-2.3131 0.5-32.434 0.5-32.434 115.12-0.25419c91.353-0.2017 115.33 0.0048 116.12 1 0.5474 0.6898 2.2459 10.929 3.7746 22.754s2.893 21.643 3.0318 21.818c0.1388 0.17474 5.8094-0.8157 12.601-2.201 184.55-37.64 345.26 42.252 396.82 197.26 61.7 185.5-81.138 354.74-314.47 372.6-4.4 0.33674-12.5 1.0273-18 1.5346s-18.688 1.2294-29.306 1.6046l-19.306 0.68224 0.633 87.102c0.3481 47.906 0.8041 87.651 1.0131 88.323 0.2091 0.67127 0.4397 33.296 0.5125 72.498l0.1324 71.278-17.84 2.691c-9.8118 1.4801-23.915 3.6048-31.34 4.7217-34.868 5.2447-90.284 13.618-117 17.679-16.225 2.4663-34 5.1313-39.5 5.9221-5.5 0.7909-21.925 3.2484-36.5 5.4611s-27.078 4.0242-27.785 4.0255c-1.0283 0-1.1281-3.7376-0.5-18.748zm35.972-14.109c2.0969-0.53363 7.8625-1.5119 12.812-2.1739 4.95-0.66203 9.45-1.5454 10-1.963s5.6148-1.3373 11.255-2.0438l10.255-1.2846 0.918-3.5876c0.505-1.9732 3.0144-17.988 5.5765-35.588 4.5588-31.316 8.081-54.72 14.898-99 1.863-12.1 4.195-27.952 5.1823-35.226 0.9872-7.2745 2.0468-12.977 2.3546-12.673 0.7093 0.70146 5.325 48.842 13.654 142.4 3.0866 34.674 0.6383 31.675 22.406 27.445 0.825-0.16033 2.4265-0.32594 3.5589-0.36802 5.5066-0.20464 5.0728 3.4445 9.4539-79.531 2.2347-42.325 4.2605-77.152 4.5016-77.393 0.7268-0.72678 1.0933 1.0128 7.9725 37.848 3.6465 19.525 7.7186 40.45 9.0491 46.5 1.3306 6.05 4.4313 21.515 6.8906 34.366s4.6518 23.546 4.8723 23.767c0.4429 0.44294 32.43-9.9424 37.201-12.078 1.65-0.73862 4.5059-1.6607 6.3465-2.0491l3.3464-0.70612-0.6041-16.149c-0.9685-25.888-1.5259-42.288-3.0978-91.149-0.814-25.3-1.7121-50.186-1.9958-55.303-0.8065-14.542-3.1548-81.276-7.4671-212.2-2.183-66.275-4.2124-125.9-4.5097-132.5-0.2974-6.6-1.4282-39.9-2.513-74-1.0847-34.1-2.2108-65.375-2.5023-69.5s-0.9744-20.775-1.5175-37-1.1996-34.45-1.4589-40.5-1.1652-33.725-2.013-61.5-1.8006-54.212-2.1174-58.75l-0.5758-8.25h-9.2103c-5.0656 0-9.6377-0.40089-10.16-0.89087-0.5225-0.48998-8.375-1.1864-17.45-1.5477-9.075-0.36126-25.05-1.0793-35.5-1.5955-10.45-0.51628-23.329-0.94481-28.621-0.95229l-9.6 0.036-0.6987 7.25c-1.3199 13.695-1.5698 17.336-3.5518 51.75-1.0929 18.975-2.2286 37.65-2.5238 41.5s-1.4226 22.035-2.5054 40.412c-1.0827 18.376-2.1125 33.556-2.2883 33.731-0.1759 0.17585-1.3148-10.359-2.531-23.412-1.3-13.05-2.9-30.48-3.7-38.73-2.2-22.19-9.5-106.78-9.5-109.44v-2.2921l-19.75 0.39481c-10.862 0.21714-20.312 0.74624-21 1.1758-1.3766 0.86007-1.9275 912.65-0.5522 914.03 0.3837 0.38377 1.2556 0.4837 1.9374 0.22205 0.6818-0.26164 2.9554-0.91231 5.0523-1.4459zm71.302-401.8c-11.325-9.5294-6.0893-31.146 5.6033-23.134 8.1066 5.5548 9.0495 20.128 1.5465 23.903-1.4518 0.7305-2.9205 1.4737-3.2638 1.6516s-2.092-0.91165-3.886-2.4212zm252 22.83c0-0.44684 5.2875-1.1219 11.75-1.5 14.844-0.86865 21.573-1.5517 27.25-2.7659 2.475-0.52936 8.1-1.6438 12.5-2.4766 12.796-2.4218 39.856-10.216 48-13.825 1.65-0.73128 4.125-1.6547 5.5-2.0521 5.6316-1.6274 26.987-11.907 36.5-17.569 167.62-99.771 148.76-363.12-30-418.94-2.2-0.68703-4.45-1.5921-5-2.0113-0.55-0.41919-3.925-1.5559-7.5-2.526-3.575-0.97014-6.95-2.082-7.5-2.4709-0.55-0.38887-4.375-1.4796-8.5-2.4239-4.125-0.94429-8.625-2.1284-10-2.6313-26.828-9.8124-121.69-16.007-164.5-10.741l-11 1.3531 0.2025 2.9815c0.1113 1.6398 0.5055 6.1352 0.876 9.9898 0.3814 3.9679 0.1623 10.85-0.5049 15.864-0.6482 4.8708-1.0013 9.0332-0.7846 9.2498 0.6683 0.66835 20.635-1.9362 20.203-2.6354-0.3537-0.57234 4.8533-1.257 28.008-3.6825 2.75-0.28807 5.45-0.87947 6-1.3142 1.5122-1.1953 16.5-2.3825 16.5-1.307 0 0.50502-1.9125 1.9044-4.25 3.1098-4.2908 2.2126-16.211 9.4866-27.25 16.629-7.7863 5.0376-10.379 6.6693-26.25 16.519l-13.25 8.2235v9.2928 9.2928l2.9297 0.58595c1.6114 0.32227 8.0239 1.0851 14.25 1.6953 6.2262 0.61013 12.445 1.4968 13.82 1.9703 1.375 0.47353 5.0211 1.1022 8.1023 1.3971 3.0813 0.29489 10.731 1.0658 17 1.7131 6.2688 0.64729 12.523 1.1689 13.898 1.1591 1.375-0.01 1.9347 0.18871 1.2438 0.44111-0.691 0.25239-1.0019 0.87047-0.691 1.3735 0.3109 0.50302-0.2488 0.91736-1.2438 0.92075-0.9949 0.003-3.1084 0.68381-4.6965 1.512-1.5882 0.82824-5.3237 2.2141-8.3011 3.0797-2.9775 0.86557-6.6281 2.2074-8.1125 2.9818-1.4844 0.77442-3.1489 1.4069-3.6989 1.4055-1.1686-0.003-34.184 11.49-39.87 13.88l-3.87 1.6261 0.6019 9.5046c0.331 5.2275 0.9051 14.86 1.2758 21.406l0.6739 11.901 35.594-0.62989c19.577-0.34644 39.419-0.25012 44.094 0.21406 9.6279 0.95594 28.945 4.8753 30.586 6.2058 0.5975 0.48435 2.9386 1.5342 5.2025 2.3329 54.412 19.198 50.006 123.29-6.8184 161.09-26.521 17.643-69.021 20.873-96.968 7.3701-5.4915-2.6532-5.2257-3.3758-5.6399 15.335-0.1982 8.9529-0.8452 37.565-1.4378 63.583-1.2242 53.749-1.8487 49.731 7.8875 50.746 3.6784 0.38369 7.5881 0.86673 8.6881 1.0734 1.1 0.20669 7.0625 0.66918 13.25 1.0278 6.1875 0.35857 11.25 1.0181 11.25 1.4656 0 0.44753 12.15 0.81369 27 0.81369s27-0.36559 27-0.81242zm183.7-208.12c-0.3215-1.375-1.9682-10.15-3.6595-19.5-3.3287-18.403-14.464-66.841-18.938-82.381-4.2661-14.818-14.728-47.131-18.065-55.798-3.7335-9.6957-3.7236-9.9723 0.256-7.1624 35.602 25.139 56.037 71.615 51.685 117.55-1.6359 17.265-10.05 52.547-11.278 47.292zm-59.929-42.731c-3.0992-9.773-8.1012-26.544-11.116-37.269-14.697-52.29-21.09-66.941-39.748-91.088-7.2929-9.4387-7.2791-9.6462 0.3867-5.8241 28.055 13.988 51.819 49.779 59.368 89.413 3.0825 16.185 1.3858 57.625-2.529 61.769-0.3996 0.42295-3.2622-7.227-6.3613-17zm-490.6 165.23-0.3-29.5h-9.5383c-9.429 0-9.5304 0.0258-8.8493 2.25 0.3789 1.2375 3.3049 10.575 6.5022 20.75s6.9821 22.438 8.4106 27.25c3.8204 12.871 4.0595 11.549 3.7539-20.749zm334.83-95.411c29.002-3.7439 52.358-22.273 64.569-51.227 4.2044-9.9691 4.1957-9.9976-5.9241-19.433-39.253-36.6-91.909-44.623-123.94-18.886l-5.75 4.6197v25.669c0 14.118 0.2949 30.707 0.6497 36.864l0.645 11.195 10.1 3.5201c21.753 7.5811 41.109 10.073 59.649 7.68zm-329.2-187.1c0.2-93.56 0.1-98.99-1.9-98.99-0.5719 0-0.7618 0.45-0.4219 1 0.3677 0.59489-0.8192 1-2.9298 1-5.9414 0-31.938 3.0575-34.07 4.0071-1.1 0.48985-7.7831 1.4458-14.851 2.1243-7.8666 0.75513-13.026 1.6886-13.302 2.4067-0.4221 1.0999 10.859 101.91 14.25 127.34 0.8521 6.39 2.5408 20.152 3.7528 30.583l2.2036 18.964 3.4732 0.73094c1.9103 0.40201 11.573 1.6961 21.473 2.8757s18.203 2.3448 18.451 2.5892c3.516 3.4625 3.54 2.8685 3.8236-94.638zm794.9 761.21c8.5856-205.18-12.596-411.06-52.317-508.52-2.5167-6.1748-4.6484-12.023-4.737-12.995-0.1226-1.3441 6.0761-5.0898 25.839-15.614l26-13.845 0.6255-6.8863c0.5762-6.3434 2.7764-48.616 3.1946-61.377l0.1799-5.4908-6-0.64951c-7.8765-0.85265-17.036-1.5375-39.5-2.9534-10.175-0.64131-18.833-1.4655-19.241-1.8315-0.6376-0.57288-5.4574-37.681-12.74-98.084-4.8746-40.433-17.008-139.81-17.429-142.75-0.2559-1.7875-0.2356-3.25 0.045-3.25s9.8148-1.8157 21.187-4.0348c11.372-2.2192 27.652-5.3704 36.177-7.0028s20.9-4.0088 27.5-5.281l12-2.3131 0.5-32.434 0.5-32.434 115.12-0.25419c91.353-0.2017 115.33 0.0048 116.12 1 0.5474 0.6898 2.2459 10.929 3.7746 22.754s2.893 21.643 3.0318 21.818c0.1388 0.17474 5.8094-0.8157 12.601-2.201 191.45-39.048 360.57 51.135 401.93 214.33 46.322 182.79-93.39 338.22-319.58 355.53-4.4 0.33674-12.5 1.0273-18 1.5346s-18.688 1.2294-29.306 1.6046l-19.306 0.68224 0.633 87.102c0.3481 47.906 0.8041 87.651 1.0131 88.323 0.2091 0.67127 0.4397 33.296 0.5125 72.498l0.1324 71.278-17.84 2.691c-9.8118 1.4801-23.915 3.6048-31.34 4.7217-34.868 5.2447-90.284 13.618-117 17.679-16.225 2.4663-34 5.1313-39.5 5.9221-5.5 0.7909-21.925 3.2484-36.5 5.4611s-27.078 4.0242-27.785 4.0255c-1.0283 0-1.1281-3.7376-0.5-18.748zm37.8-13.78c3.85-0.82723 13.3-2.6266 21-3.9986s15.763-2.8161 17.919-3.2092c4.9935-0.91068 4.4559 1.1294 10.07-38.215 2.5507-17.875 5.7169-38.8 7.0361-46.5 2.7607-16.114 14.442-96.163 14.543-99.662 0.2297-7.937 2.0109 4.879 3.9138 28.162 1.1913 14.575 2.8135 32.575 3.605 40 0.7914 7.425 2.9926 30.6 4.8915 51.5s3.7432 41.081 4.0985 44.847c0.6358 6.7387 0.6878 6.8393 3.2847 6.3475 1.4514-0.2748 5.5638-1.0357 9.1388-1.6909 3.575-0.65518 7.175-1.3396 8-1.521 0.825-0.18138 2.625-0.37111 4-0.42161 4.6898-0.17226 4.84-0.70468 5.9485-21.086 0.5826-10.711 1.2906-23.075 1.5734-27.475 0.665-10.35 4.5196-78.274 5.3626-94.5l0.6494-12.5 1.2767 6c0.7022 3.3 2.5831 12.075 4.1798 19.5s4.2729 20.925 5.947 30 4.6684 24.6 6.6541 34.5 5.0717 25.319 6.8579 34.265c3.963 19.848 2.1293 18.443 17.319 13.267 7.0023-2.386 15.431-5.203 18.731-6.2601s6.9-2.31 8-2.7843c1.1-0.47428 3.0125-1.1459 4.25-1.4926 1.9244-0.53904 2.2492-1.3078 2.2444-5.3128-0.01-4.9953-6.5676-204.81-7.5261-229.18-1.8492-47.028-2.6304-68.144-4.4028-119-1.0829-31.075-2.2293-62.575-2.5475-70s-2.5847-75.15-5.0367-150.5-4.6974-142.62-4.9899-149.5c-1.0068-23.667-2.7098-68.571-3.8494-101.5l-1.142-33-23.5-1.1627c-12.925-0.6395-32.725-1.7181-44-2.397-51.771-3.117-44.236-10.273-47.446 45.06-3.7417 64.488-7.5454 125.33-7.9089 126.5-0.1703 0.54814-0.8756-5.9769-1.5673-14.5-0.6917-8.5232-2.5536-29.222-4.1376-45.997s-4.4863-48.275-6.4495-70-3.7545-40.041-3.9807-40.703c-0.4108-1.2014-12.299-1.0845-33.26 0.32712l-8.25 0.55559v457.41c0 365.28 0.2518 457.4 1.25 457.37 0.6875-0.0202 4.4-0.71358 8.25-1.5408zm69.709-401.99c-8.3-5.85-7.7-25.43 0.8-25.43 10.396 0 15.014 22.378 5.3748 26.043-3.2989 1.2542-3.5535 1.2292-6.1779-0.60904zm269.8 21.6c3.025-0.56647 10.9-1.6969 17.5-2.512 6.6-0.81513 14.7-2.1417 18-2.948 3.3-0.80626 8.7-2.1267 12-2.9343 8.8807-2.1734 20.329-5.5318 26-7.6273 17.694-6.5381 25.041-9.4975 25.333-10.204 0.1834-0.44366 0.9298-0.80665 1.6589-0.80665 3.3795 0 25.34-12.509 44.105-25.124 7.2995-4.9069 26.106-21.746 33.017-29.562 3.7874-4.2839 7.4419-8.3825 8.1211-9.1081 23.182-24.765 42.055-67.477 50.841-115.06 17.512-94.85-27.82-195.41-105.83-234.76-2.8876-1.4565-5.4753-2.9344-5.7503-3.2842-0.7453-0.94808-18.924-9.7124-25.115-12.108-2.9617-1.1463-6.735-2.6912-8.385-3.4331-1.65-0.74198-4.575-1.6735-6.5-2.07-1.925-0.39653-4.0625-1.1741-4.75-1.7279-0.6875-0.55383-1.25-0.67177-1.25-0.26208s-0.6241 0.22694-1.3869-0.40612c-0.7628-0.63305-4.2503-1.7926-7.75-2.5768-3.4997-0.78422-8.3881-2.0801-10.863-2.8796-7.3952-2.3891-21.818-5.5218-33-7.1676-5.775-0.84999-12.525-1.9786-15-2.508-14.56-3.1146-63.088-4.5848-100.5-3.0448-34.181 1.407-31.963 0.87291-30.885 7.437 1.1011 6.7082 1.1027 17.188 0 27.038l-0.8802 7.8916 2.8807-0.64452c2.7973-0.62585 12.313-2.3329 17.381-3.1178 1.375-0.21299 5.2-0.67214 8.5-1.0203 3.3-0.3482 6.9-1.0165 8-1.4852 1.1-0.46866 8.6851-1.5962 16.856-2.5056 8.1707-0.90944 15.596-1.9005 16.5-2.2023 2.5128-0.83865-27.933 18.484-60.636 38.484-10.552 6.4531-10.185 5.8836-10.204 15.837-0.017 9.2605 0.4129 9.9184 6.9847 10.678 2.475 0.28604 13.275 1.5079 24 2.7152s20.4 2.5717 21.5 3.0319c1.1 0.46026 5.7125 1.1336 10.25 1.4962 8.2726 0.6612 10.382 1.6992 5.7941 2.8508-1.3507 0.33902-3.7132 1.133-5.25 1.7644-1.5368 0.63137-3.2441 1.216-3.7941 1.2992s-1.675 0.44549-2.5 0.80515-6.9 2.4438-13.5 4.6315-16.5 5.6047-22 7.5934-12.199 4.3019-14.886 5.1405l-4.8864 1.5247 0.662 14.171c0.3641 7.7939 0.9426 17.948 1.2856 22.565l0.6236 8.3944 21.101-0.81661c45.804-1.7726 72.852-0.32124 84.101 4.513 1.1 0.47271 4.25 1.6625 7 2.6439 58.493 20.875 53.362 132.99-7.5 163.87-1.925 0.97685-3.725 2.0763-4 2.4433-0.275 0.36698-2.075 1.2752-4 2.0184-1.925 0.74312-5.3165 2.1476-7.5366 3.121-15.411 6.7572-62.33 6.7438-70.939-0.0203-0.5633-0.4426-2.8242-1.372-5.0242-2.0654-2.2-0.69336-4.5224-1.6738-5.161-2.1789-2.2974-1.817-5.1766 80.882-4.1469 119.11l0.3079 11.431 12.5 1.8596c6.875 1.0228 16.325 2.2585 21 2.7461 10.924 1.1393 72.784 0.41631 80-0.93502zm165.7-208.03c-0.3287-1.375-1.7808-9.25-3.2268-17.5-7.4217-42.342-19.464-88.738-33.352-128.5-3.3618-9.625-6.1145-17.834-6.1169-18.242-0.01-1.4987 11.714 8.2656 19.078 15.89 27.453 28.425 40.065 71.856 32.815 113-3.1104 17.654-8.4875 38.318-9.1977 35.347zm-59.498-41.27c-6.5264-21.454-13.168-44.218-16.624-56.979-2.7572-10.181-10.597-32.292-14.808-41.766-3.0775-6.9226-17.673-29.06-22.659-34.367-8.9373-9.5134 12.795 3.326 24.185 14.288 31.743 30.552 51.802 106.03 35.83 134.82-0.3751 0.6763-3.0407-6.5237-5.9235-16zm-490.4 164.7-0.3-29.93l-8.9088-0.29125c-12.647-0.41345-13.048-5.8412 3.5494 48.052 5.6082 18.21 5.9346 17.176 5.6246-17.826zm334.28-95.346c29.002-3.7439 52.358-22.273 64.569-51.227 4.2044-9.9691 4.1957-9.9976-5.9241-19.433-39.253-36.6-91.909-44.623-123.94-18.886l-5.75 4.6197v25.669c0 14.118 0.2949 30.707 0.6497 36.864l0.645 11.195 10.1 3.5201c21.753 7.5811 41.109 10.073 59.649 7.68zm-329.1-187.5c0-110.14 0.9742-101.57-11-96.823-0.825 0.32671-9.825 1.6477-20 2.9355-30.06 3.8046-36.822 4.7746-37.403 5.3656-0.5037 0.51258 1.703 21.083 2.8901 26.94 0.2786 1.375 3.6555 30.175 7.5041 64 11.218 98.596 8.1175 87.213 24.223 88.93 6.7569 0.72037 15.435 1.8821 19.285 2.5817 3.85 0.69958 8.6875 1.3206 10.75 1.3802l3.8 0.11v-95.418zm-128.7 130.42c0-19.364 0.3083-30.757 0.7306-27 0.4018 3.575 0.7306 15.725 0.7306 27s-0.3288 23.425-0.7306 27c-0.4223 3.7571-0.7306-7.6363-0.7306-27z"/>
</svg>
